<?xml version="1.0" standalone="no"?>
<!DOCTYPE svg PUBLIC "-//W3C//DTD SVG 20010904//EN"
 "http://www.w3.org/TR/2001/REC-SVG-20010904/DTD/svg10.dtd">
<svg version="1.0" xmlns="http://www.w3.org/2000/svg"
 width="4100.000000pt" height="4100.000000pt" viewBox="0 0 4100.000000 4100.000000"
 preserveAspectRatio="xMidYMid meet">

<g transform="translate(0.000000,4100.000000) scale(0.100000,-0.100000)"
fill="#000000" stroke="none">
<path d="M16590 36335 c-10 -12 -44 -15 -189 -15 -190 0 -201 -3 -201 -50 0
-30 17 -50 42 -50 17 0 18 -13 18 -169 l0 -169 -25 -6 c-28 -7 -44 -50 -28
-75 9 -13 37 -16 172 -19 173 -3 218 4 273 42 l35 23 27 -33 c42 -53 124 -65
197 -28 23 11 31 10 68 -8 36 -18 47 -19 84 -9 55 14 1283 16 1336 1 45 -12
94 0 127 31 l22 21 7 -21 c6 -20 13 -21 139 -21 140 0 156 5 156 47 0 16 -10
30 -30 41 l-30 17 0 113 c0 101 2 112 18 112 40 0 57 54 26 84 -13 13 -41 16
-157 16 -78 0 -160 -5 -182 -10 -86 -20 -121 -108 -72 -182 l24 -34 -22 -33
c-31 -44 -31 -44 -55 -31 -17 9 -26 8 -46 -5 l-24 -15 0 100 0 101 29 10 c35
12 46 45 26 76 l-15 23 -596 0 c-429 0 -601 -3 -610 -11 -17 -14 -18 -61 -2
-77 7 -7 20 -12 30 -12 16 0 18 -11 18 -117 l0 -117 -21 23 c-13 14 -29 21
-40 18 -17 -5 -19 1 -19 68 0 97 -16 168 -43 193 -47 43 -193 56 -276 24 -79
-30 -105 -120 -50 -171 16 -15 17 -20 6 -29 -11 -10 -16 -4 -25 26 -7 22 -21
47 -32 57 -19 17 -19 18 2 35 l22 17 -19 89 c-10 49 -22 97 -27 107 -11 21
-51 22 -68 2z m48 -93 c17 -84 16 -87 -20 -56 -48 40 -90 54 -158 54 l-60 0 0
-95 0 -96 28 21 c105 78 252 16 252 -105 0 -52 -28 -97 -76 -121 -33 -16 -66
-19 -204 -22 l-165 -3 32 20 c40 25 46 61 41 248 -3 147 -11 173 -50 173 -10
0 -16 5 -13 10 4 6 75 10 180 10 105 0 176 4 180 10 13 21 21 8 33 -48z m-109
-52 c9 0 29 -10 44 -23 l28 -22 -75 0 -76 0 0 29 c0 27 2 28 31 22 17 -3 39
-6 48 -6z m453 -20 c59 -17 68 -38 68 -163 0 -127 9 -152 51 -143 36 7 37 -6
3 -33 -41 -32 -98 -28 -125 8 l-21 29 -46 -29 c-88 -56 -182 -28 -182 54 0 50
23 72 130 125 87 43 95 50 98 78 4 39 -16 56 -60 52 -26 -2 -34 -9 -41 -33
-15 -50 -23 -60 -51 -63 -35 -4 -56 13 -56 48 0 31 25 57 66 70 41 12 122 12
166 0z m378 -8 c0 -4 -9 -13 -20 -20 -18 -11 -20 -23 -20 -152 l0 -140 60 0
60 0 0 134 c0 109 -3 138 -16 150 -8 9 -20 16 -25 16 -6 0 -7 5 -4 10 3 6 44
10 90 10 46 0 87 -4 90 -10 3 -5 -1 -10 -9 -10 -28 0 -36 -38 -36 -169 l0
-131 60 0 60 0 0 140 c0 129 -2 141 -20 152 -11 7 -20 16 -20 20 0 5 43 8 95
8 88 0 122 -10 75 -23 -30 -8 -40 -48 -40 -157 0 -111 10 -142 48 -157 20 -8
-60 -11 -303 -12 l-330 -1 32 19 c38 24 48 69 41 196 -5 87 -17 115 -50 115
-10 0 -16 5 -13 10 7 12 195 14 195 2z m695 -2 c3 -5 -1 -10 -9 -10 -30 0 -46
-30 -46 -86 l0 -54 85 0 85 0 0 52 c0 52 -19 88 -47 88 -7 0 -13 5 -13 10 0 6
42 10 105 10 63 0 105 -4 105 -10 0 -5 -5 -10 -12 -10 -6 0 -20 -7 -30 -17
-15 -14 -18 -32 -18 -134 0 -64 3 -125 6 -134 4 -9 18 -22 33 -28 24 -11 23
-12 -26 -15 -29 -2 -78 -2 -110 0 -53 3 -56 4 -32 15 32 14 39 31 39 89 l0 44
-85 0 -86 0 3 -57 c3 -53 6 -59 33 -73 l30 -15 -52 -3 c-29 -2 -78 -1 -110 1
-45 3 -53 5 -35 12 34 11 42 43 42 163 0 111 -12 152 -46 152 -8 0 -14 5 -14
10 0 6 40 10 99 10 56 0 103 -4 106 -10z m745 1 c0 -5 -9 -11 -20 -14 -30 -8
-40 -48 -40 -157 0 -111 10 -142 48 -157 22 -9 4 -11 -87 -12 -114 -1 -122 2
-79 23 20 10 23 21 26 74 3 55 1 62 -16 62 -25 0 -55 -29 -96 -95 -19 -29 -44
-59 -55 -64 -31 -17 -86 -13 -103 7 -30 35 -31 42 0 36 25 -5 34 1 77 51 27
32 62 63 77 70 l29 12 -40 12 c-42 12 -81 52 -81 81 0 33 35 63 81 70 65 11
279 11 279 1z m-1885 -61 c3 -5 1 -10 -4 -10 -6 0 -11 5 -11 10 0 6 2 10 4 10
3 0 8 -4 11 -10z m480 -100 c0 -92 -2 -105 -17 -108 -16 -3 -18 7 -18 108 0
101 2 111 18 108 15 -3 17 -16 17 -108z m215 0 c0 -103 -1 -110 -20 -110 -19
0 -20 7 -20 103 0 105 3 117 27 117 10 0 13 -25 13 -110z m250 -4 c0 -103 -2
-115 -19 -121 -45 -14 -51 0 -51 121 l0 114 35 0 35 0 0 -114z m268 87 c3 -21
-1 -23 -42 -23 -38 0 -46 3 -46 18 0 27 10 33 50 30 28 -2 36 -8 38 -25z m2
-173 c0 -25 -33 -42 -65 -34 -18 4 -25 13 -25 30 0 22 4 24 45 24 38 0 45 -3
45 -20z m476 -27 c-10 -10 -19 5 -10 18 6 11 8 11 12 0 2 -7 1 -15 -2 -18z"/>
<path d="M16450 36053 c-42 -15 -50 -34 -50 -114 0 -43 4 -80 8 -83 5 -3 33
-1 62 3 65 10 100 44 100 96 0 77 -55 122 -120 98z m71 -66 c15 -32 -4 -75
-36 -83 -14 -3 -28 -5 -30 -3 -3 4 -8 85 -6 102 1 4 15 7 31 7 22 0 33 -6 41
-23z"/>
<path d="M16896 35997 c-63 -34 -82 -61 -72 -101 8 -33 44 -43 83 -22 46 23
54 39 51 100 l-3 55 -59 -32z m8 -72 c-35 -26 -51 -16 -19 12 18 16 31 21 33
14 2 -7 -4 -19 -14 -26z"/>
<path d="M18559 36119 c-39 -39 1 -109 62 -109 28 0 29 2 29 49 0 76 -45 106
-91 60z m51 -44 c0 -8 -4 -15 -10 -15 -5 0 -10 7 -10 15 0 8 5 15 10 15 6 0
10 -7 10 -15z"/>
<path d="M16224 35711 c-18 -11 -56 -58 -89 -110 -32 -50 -62 -91 -66 -91 -5
0 -9 23 -9 51 0 46 2 51 29 60 34 12 44 38 27 71 -11 22 -17 23 -140 26 -143
3 -159 -2 -154 -52 2 -22 11 -35 31 -44 l27 -13 0 -162 0 -163 -30 -11 c-22
-8 -30 -18 -30 -36 0 -57 1 -57 151 -57 135 0 140 1 148 22 12 33 2 57 -30 74
-24 12 -29 21 -29 49 0 19 3 35 8 35 4 -1 30 -32 57 -71 55 -77 106 -114 171
-125 52 -8 107 16 131 57 l17 29 26 -24 c82 -76 217 -83 303 -15 33 27 37 28
37 11 0 -38 20 -42 244 -44 l218 -3 16 -50 c17 -49 18 -50 56 -50 37 0 40 2
54 43 17 51 38 62 120 62 87 0 98 -6 120 -61 17 -40 25 -49 46 -49 36 0 56 10
56 29 0 10 8 3 20 -16 24 -40 54 -56 106 -56 55 0 105 32 142 91 16 26 64 122
107 215 81 172 91 185 142 175 16 -3 18 -16 21 -113 l3 -110 -31 -12 c-22 -8
-30 -18 -30 -36 0 -59 -11 -57 274 -57 161 0 266 4 272 10 7 7 23 3 49 -11 45
-23 111 -19 154 8 22 14 27 13 63 -7 29 -16 48 -20 77 -15 47 8 95 36 117 70
16 25 16 27 -3 53 -13 18 -30 27 -47 27 l-26 -1 0 104 c0 168 -28 197 -195
197 -84 0 -106 -3 -136 -21 -35 -21 -36 -21 -47 -3 -11 17 -32 19 -363 19
-230 0 -356 -4 -365 -11 -8 -7 -14 -7 -19 1 -4 6 -57 10 -139 10 -146 0 -160
-5 -154 -56 3 -26 14 -37 49 -47 9 -3 49 -65 89 -138 64 -117 71 -135 61 -156
-9 -18 -16 -23 -29 -17 -38 16 -83 16 -108 -1 -30 -19 -29 -23 -8 51 8 28 -20
54 -57 54 -28 0 -33 7 -107 158 -67 135 -81 157 -103 160 -18 2 -31 -5 -47
-28 -12 -16 -31 -30 -40 -30 -39 0 -57 -55 -27 -80 22 -18 19 -31 -25 -113
-36 -66 -43 -74 -65 -69 -14 2 -32 -1 -40 -8 -17 -14 -15 -18 -119 185 -62
123 -74 140 -98 143 -21 3 -30 -3 -43 -27 -10 -21 -23 -31 -38 -31 -44 0 -65
-53 -32 -80 22 -18 19 -32 -19 -108 -34 -68 -47 -84 -77 -95 -14 -5 -15 -1 -3
31 21 58 17 130 -10 187 -28 60 -46 77 -111 106 -99 44 -227 9 -285 -79 -28
-43 -45 -118 -38 -171 2 -20 -3 -27 -25 -35 -26 -10 -32 -7 -60 25 -18 20 -52
59 -77 88 l-46 51 19 30 c17 27 22 29 63 23 53 -7 89 9 110 49 22 43 17 82
-15 117 -24 25 -37 31 -73 31 -25 0 -56 -8 -74 -19z m108 -33 c29 -23 31 -54
5 -84 -22 -26 -26 -27 -65 -17 -51 13 -66 4 -110 -66 l-31 -51 28 -14 c15 -8
54 -47 85 -86 68 -84 96 -105 131 -96 31 8 32 -1 3 -31 -17 -18 -32 -23 -69
-23 -58 0 -91 25 -164 124 -39 54 -92 96 -119 96 -8 0 -8 -144 0 -165 4 -9 18
-22 33 -28 24 -11 22 -12 -31 -15 -32 -2 -84 -2 -115 0 l-58 3 30 15 30 15 3
175 c1 96 0 185 -3 197 -3 13 -16 25 -30 29 -55 14 -19 24 85 24 67 0 110 -4
110 -10 0 -5 -6 -10 -14 -10 -31 0 -46 -42 -46 -127 0 -72 2 -83 18 -83 34 0
80 40 117 102 21 34 47 74 58 88 35 46 87 63 119 38z m408 -131 c87 -58 103
-194 33 -278 -77 -91 -242 -76 -300 26 -27 47 -31 140 -9 183 50 97 183 130
276 69z m2310 20 c50 -17 60 -45 60 -172 0 -60 4 -116 9 -124 6 -9 18 -11 40
-6 38 8 40 -6 5 -34 -46 -36 -116 -26 -140 21 -8 15 -14 14 -53 -13 -54 -36
-115 -39 -155 -8 -21 16 -26 29 -26 64 0 38 5 48 33 71 19 14 64 39 102 56 84
35 95 44 95 74 0 30 -25 54 -59 54 -33 0 -51 -16 -51 -46 0 -29 -25 -54 -55
-54 -46 0 -69 47 -42 83 29 41 162 60 237 34z m-1910 -157 c69 -138 85 -162
113 -174 30 -13 24 -14 -88 -15 -112 0 -118 1 -92 15 35 19 34 43 -7 124 l-34
64 -36 -72 c-20 -39 -36 -78 -36 -86 0 -9 12 -22 28 -30 26 -14 23 -15 -58
-15 l-85 0 34 17 c27 14 45 37 85 114 47 92 49 98 36 125 -8 15 -16 31 -18 36
-2 4 3 7 11 7 8 0 25 11 38 25 13 13 25 25 26 25 2 0 39 -72 83 -160z m456 8
c42 -84 82 -156 88 -160 6 -4 21 -8 34 -8 27 0 27 -1 1 -78 -23 -68 -34 -77
-42 -34 -3 16 -15 39 -25 53 -19 22 -28 24 -119 27 -117 3 -140 -6 -169 -67
-23 -48 -27 -47 -44 19 -6 25 -13 53 -16 63 -4 13 1 17 24 17 36 0 50 16 96
107 40 80 45 117 19 145 -15 17 -15 18 4 18 11 0 30 11 43 25 13 14 25 25 27
25 1 0 37 -69 79 -152z m397 145 c4 -3 -3 -11 -15 -17 -13 -6 -24 -19 -26 -27
-3 -17 75 -169 86 -169 11 1 72 143 72 168 0 15 -7 26 -20 29 -11 3 -17 9 -14
14 7 12 141 11 149 -1 3 -5 -3 -10 -13 -10 -38 0 -62 -36 -147 -220 -97 -210
-135 -260 -200 -260 -43 0 -76 29 -68 60 9 34 39 44 82 27 46 -19 64 -10 91
44 l20 39 -66 123 c-82 149 -109 187 -135 187 -11 0 -17 5 -14 10 7 11 208 14
218 3z m477 -2 c0 -5 -9 -11 -20 -14 -25 -6 -42 -50 -38 -96 l3 -36 83 -3 82
-3 0 59 c0 60 -11 82 -43 82 -10 0 -15 5 -12 10 3 6 50 10 105 10 55 0 102 -4
105 -10 3 -5 -3 -10 -13 -10 -33 0 -45 -28 -50 -115 -7 -127 3 -172 41 -196
l32 -19 -115 0 -115 0 33 20 c30 18 32 23 32 75 l0 55 -85 0 -85 0 0 -37 c0
-59 10 -84 39 -96 24 -11 23 -12 -26 -15 -29 -2 -78 -2 -110 0 l-58 3 30 15
30 15 3 120 c3 143 0 163 -33 171 -14 3 -22 10 -19 15 7 12 204 12 204 0z
m-413 -49 c8 -5 7 -16 -6 -40 l-17 -32 -18 31 c-15 26 -16 33 -5 40 17 11 30
11 46 1z m481 -29 c3 -21 -1 -23 -37 -23 -37 0 -41 2 -41 26 0 23 3 25 38 22
30 -2 38 -7 40 -25z m222 3 c0 -12 11 -35 24 -49 l24 -26 -25 -23 c-13 -12
-29 -42 -36 -65 -6 -24 -15 -43 -19 -43 -4 0 -8 52 -8 115 0 108 1 115 20 115
14 0 20 -7 20 -24z m210 15 c0 -6 -4 -13 -10 -16 -5 -3 -10 1 -10 9 0 9 5 16
10 16 6 0 10 -4 10 -9z m-430 -195 c0 -17 -7 -26 -24 -30 -35 -9 -56 3 -56 30
0 21 4 24 40 24 36 0 40 -3 40 -24z m-1490 -23 c0 -16 -26 -17 -35 -3 -4 6 -1
18 6 26 10 12 14 12 20 2 5 -7 9 -19 9 -25z"/>
<path d="M16555 35528 c-28 -16 -35 -28 -35 -69 0 -44 43 -131 87 -175 60 -61
138 -37 136 42 -1 49 -47 136 -93 178 -42 38 -62 43 -95 24z m88 -81 c55 -73
73 -141 41 -154 -21 -8 -69 40 -99 101 -28 55 -31 76 -13 94 15 15 41 1 71
-41z"/>
<path d="M18965 35403 c-70 -36 -85 -51 -85 -90 0 -47 33 -62 83 -38 51 24 58
37 55 98 l-3 55 -50 -25z m0 -73 c-10 -11 -25 -20 -33 -20 -12 0 -12 4 3 20
10 11 25 20 33 20 12 0 12 -4 -3 -20z"/>
<path d="M17450 35345 c-41 -81 -33 -97 44 -93 41 2 52 7 54 22 4 20 -46 136
-58 136 -4 0 -22 -29 -40 -65z m50 -40 c0 -8 -4 -15 -10 -15 -5 0 -10 7 -10
15 0 8 5 15 10 15 6 0 10 -7 10 -15z"/>
<path d="M30010 34323 c-102 -18 -177 -96 -210 -216 -14 -51 -7 -93 29 -166
36 -74 145 -141 231 -141 108 0 226 89 250 190 32 129 -23 257 -132 310 -41
20 -125 31 -168 23z m141 -98 c34 -18 71 -67 88 -119 34 -99 -68 -226 -181
-226 -43 0 -126 48 -146 85 -47 88 -46 143 5 212 50 69 153 90 234 48z"/>
<path d="M29978 34151 c-28 -25 -32 -34 -32 -84 -1 -48 3 -60 27 -85 50 -52
123 -52 176 0 25 25 31 38 31 74 0 83 -41 124 -124 124 -36 0 -52 -6 -78 -29z"/>
<path d="M33040 34263 c-102 -18 -177 -96 -210 -216 -14 -51 -7 -93 29 -166
36 -74 145 -141 231 -141 108 0 226 89 250 190 32 129 -23 257 -132 310 -41
20 -125 31 -168 23z m141 -98 c34 -18 71 -67 88 -119 34 -99 -68 -226 -181
-226 -43 0 -126 48 -146 85 -47 88 -46 143 5 212 50 69 153 90 234 48z"/>
<path d="M33008 34091 c-28 -25 -32 -34 -32 -84 -1 -48 3 -60 27 -85 50 -52
123 -52 176 0 25 25 31 38 31 74 0 83 -41 124 -124 124 -36 0 -52 -6 -78 -29z"/>
<path d="M15167 33223 c-4 -3 -7 -20 -7 -37 0 -31 36 -289 66 -469 9 -54 14
-101 10 -104 -6 -7 -202 122 -213 140 -3 5 0 27 8 49 12 38 12 42 -10 59 -49
40 -58 32 -194 -168 -43 -61 -77 -120 -77 -132 0 -22 35 -51 61 -51 9 0 24 9
34 20 25 27 50 25 99 -8 90 -61 306 -210 390 -268 99 -69 128 -73 134 -18 2
16 -17 153 -42 304 -25 151 -43 276 -41 278 4 5 148 -91 200 -132 27 -22 28
-26 17 -50 -18 -40 -14 -59 14 -80 39 -28 57 -12 159 137 113 165 116 173 80
204 -24 21 -29 22 -49 10 -67 -44 -60 -44 -118 -5 -71 48 -261 179 -380 261
-90 62 -125 77 -141 60z m214 -166 c330 -227 329 -227 367 -227 23 0 45 8 60
23 41 37 21 -1 -74 -139 -84 -122 -105 -145 -84 -90 17 47 -8 85 -96 145 -43
29 -112 76 -152 104 -40 27 -75 48 -77 45 -3 -3 19 -153 48 -334 30 -181 53
-331 51 -333 -2 -2 -87 55 -191 126 -103 72 -219 151 -256 176 -76 52 -110 58
-151 26 -14 -11 -26 -18 -26 -15 0 9 159 238 177 256 14 13 14 12 7 -10 -12
-38 -8 -69 12 -92 25 -26 294 -211 300 -205 3 3 -14 128 -36 278 -23 151 -45
298 -49 327 -4 28 -5 52 -1 52 4 0 81 -51 171 -113z"/>
<path d="M30337 32743 c-4 -3 -7 -21 -7 -40 0 -27 6 -37 33 -53 44 -27 130
-27 175 0 29 18 33 25 30 58 -3 34 -6 37 -35 40 -37 4 -53 -18 -50 -64 2 -26
-1 -29 -30 -32 -32 -3 -33 -2 -33 35 0 22 -5 44 -12 51 -13 13 -60 16 -71 5z"/>
<path d="M29190 32705 c-10 -12 -44 -15 -189 -16 -97 -1 -166 -4 -154 -6 44
-9 48 -25 48 -213 0 -187 -3 -201 -50 -221 -12 -6 41 -8 140 -6 176 3 218 14
259 69 43 59 15 162 -52 194 -47 22 -132 15 -172 -15 l-30 -22 0 96 0 95 65 0
c71 0 111 -15 158 -58 31 -29 31 -28 12 51 -16 69 -18 72 -35 52z m-75 -231
c22 -9 45 -57 45 -97 0 -63 -59 -107 -142 -107 l-28 0 0 90 c0 87 1 90 28 104
29 16 70 20 97 10z"/>
<path d="M32210 32594 c-40 -15 -236 -18 -292 -5 -35 8 -36 7 -42 -22 -3 -16
-6 -43 -6 -60 l0 -30 45 42 c28 25 54 41 70 41 l25 0 0 -133 c0 -138 -4 -153
-45 -175 -15 -9 5 -11 90 -11 61 0 103 3 95 6 -46 17 -50 30 -50 175 l0 138
29 0 c22 0 38 -10 63 -40 l35 -40 11 62 c6 34 10 62 9 63 -1 1 -18 -4 -37 -11z"/>
<path d="M29533 32593 c-12 -2 -33 -16 -47 -30 l-26 -26 0 27 c0 32 -1 32 -86
4 -46 -15 -62 -23 -47 -26 43 -7 48 -26 51 -191 4 -180 -4 -232 -36 -246 -26
-12 -30 -29 -4 -21 9 2 56 8 105 12 48 3 90 10 93 15 3 5 -6 9 -20 9 -42 0
-56 24 -56 97 l0 66 25 -23 c34 -32 108 -38 154 -12 51 28 76 82 76 167 0 77
-19 123 -65 156 -27 18 -81 29 -117 22z m58 -59 c21 -22 24 -37 27 -107 4
-111 -15 -152 -72 -152 -48 0 -76 32 -83 98 -16 142 58 235 128 161z"/>
<path d="M29883 32591 c-52 -9 -83 -36 -83 -71 0 -57 63 -68 89 -15 8 17 17
37 21 45 9 19 67 25 86 9 9 -7 14 -25 12 -43 -3 -28 -11 -35 -98 -78 -52 -26
-103 -57 -112 -68 -27 -33 -23 -86 8 -117 22 -22 32 -25 75 -21 36 4 60 14 87
35 l36 30 21 -31 c25 -38 66 -45 112 -21 47 26 49 42 5 41 l-37 -1 -6 125 c-3
69 -9 132 -13 141 -16 35 -118 55 -203 40z m125 -203 c-3 -59 -5 -64 -38 -86
-43 -29 -80 -25 -99 10 -14 25 -14 29 5 54 18 24 105 82 127 83 4 1 7 -27 5
-61z"/>
<path d="M30943 32589 c-18 -5 -39 -19 -48 -31 l-15 -22 0 27 c0 33 -8 33 -90
5 -62 -20 -63 -22 -37 -31 15 -5 29 -18 32 -30 3 -12 4 -105 3 -207 -3 -181
-3 -185 -25 -195 -40 -17 -25 -21 50 -14 39 4 87 8 105 8 17 1 32 5 32 9 0 4
-15 12 -32 17 -33 10 -33 10 -36 84 l-3 74 33 -28 c28 -24 38 -27 85 -23 89 8
136 68 137 178 1 130 -84 210 -191 179z m62 -53 c29 -29 39 -79 32 -155 -6
-66 -22 -99 -54 -107 -67 -17 -103 30 -103 136 0 124 63 188 125 126z"/>
<path d="M32503 32589 c-18 -5 -39 -19 -48 -31 l-15 -22 0 27 c0 33 -8 33 -90
5 -62 -20 -63 -22 -37 -31 15 -5 29 -18 32 -30 3 -12 4 -105 3 -207 -3 -181
-3 -185 -25 -195 -40 -17 -25 -21 50 -14 39 4 87 8 105 8 17 1 32 5 32 9 0 4
-15 12 -32 17 -33 10 -33 10 -36 84 l-3 74 33 -28 c28 -24 38 -27 85 -23 89 8
136 68 137 178 1 130 -84 210 -191 179z m62 -53 c29 -29 39 -79 32 -155 -6
-66 -22 -99 -54 -107 -67 -17 -103 30 -103 136 0 124 63 188 125 126z"/>
<path d="M32865 32591 c-22 -4 -50 -12 -62 -19 -44 -24 -41 -87 4 -98 33 -9
54 5 66 42 15 46 27 55 66 52 28 -2 38 -9 45 -29 5 -15 6 -34 3 -43 -4 -9 -46
-35 -94 -57 -114 -52 -133 -70 -133 -125 0 -34 5 -47 26 -63 46 -36 122 -22
182 32 19 18 22 18 22 4 0 -52 85 -75 134 -36 34 27 33 37 -3 31 -17 -2 -32 1
-37 10 -5 7 -11 69 -14 137 -5 118 -6 125 -30 142 -29 20 -117 31 -175 20z
m125 -201 c0 -57 -1 -60 -37 -85 -43 -29 -75 -32 -97 -9 -24 23 -19 57 12 86
25 24 98 67 115 68 4 0 7 -27 7 -60z"/>
<path d="M30490 32475 l-125 -114 -3 86 c-3 89 3 108 43 123 12 5 -23 8 -90 8
-60 0 -100 -3 -88 -5 42 -8 48 -29 53 -185 l5 -149 122 111 c66 60 124 110
127 110 9 0 6 -151 -3 -174 -4 -10 -18 -24 -32 -32 -21 -12 -13 -13 81 -13 99
0 103 1 78 15 -16 8 -29 16 -30 17 0 1 -4 72 -7 158 l-6 157 -125 -113z"/>
<path d="M33901 32572 c-6 -12 -23 -25 -37 -28 -14 -4 -23 -9 -22 -13 33 -63
33 -57 -5 -134 -50 -100 -72 -127 -107 -127 l-28 0 14 -57 c23 -91 23 -91 43
-47 29 65 50 74 164 74 96 0 99 -1 128 -29 16 -16 29 -39 29 -50 0 -42 19 -29
34 24 9 30 19 61 22 69 4 11 -3 15 -28 18 -32 3 -36 8 -114 162 -74 145 -82
158 -93 138z m29 -201 c28 -59 31 -72 20 -85 -18 -23 -118 -22 -127 0 -6 15
54 154 67 154 3 0 21 -31 40 -69z"/>
<path d="M31210 32569 c13 -6 28 -15 32 -22 4 -7 8 -69 8 -140 l0 -127 -32
-20 -33 -20 325 1 c179 0 318 3 310 6 -46 17 -50 30 -50 168 0 138 3 147 45
158 11 2 -27 5 -85 5 -58 0 -98 -2 -90 -5 35 -12 40 -35 40 -170 l0 -133 -65
0 -65 0 0 133 c0 72 4 137 8 143 4 6 16 16 27 22 16 9 1 11 -74 12 l-93 0 23
-19 c23 -18 24 -26 27 -155 l4 -136 -66 0 -67 0 3 142 c3 141 3 143 28 155 22
11 11 13 -80 12 -79 0 -99 -3 -80 -10z"/>
<path d="M33210 32569 c13 -6 28 -15 32 -22 4 -7 8 -69 8 -140 l0 -127 -32
-20 -33 -20 110 0 110 0 -32 20 c-31 18 -33 23 -33 75 l0 55 85 0 85 0 0 -53
c0 -54 -12 -76 -50 -90 -8 -3 35 -6 95 -6 85 0 105 2 90 11 -41 22 -45 38 -45
163 0 127 5 141 50 158 8 3 -34 5 -95 5 -60 0 -101 -3 -90 -5 37 -9 45 -24 45
-84 l0 -59 -85 0 -85 0 0 53 c0 60 6 72 40 86 19 7 -3 10 -85 10 -82 0 -104
-3 -85 -10z"/>
<path d="M14535 32297 c-4 -13 6 -97 20 -188 40 -250 59 -399 52 -405 -8 -8
-184 113 -202 139 -10 14 -11 26 -5 38 14 24 12 63 -2 77 -7 7 -24 12 -39 12
-29 0 -24 6 -163 -190 -83 -116 -89 -148 -36 -170 26 -11 33 -10 60 13 19 17
37 24 48 20 9 -4 130 -84 269 -180 138 -95 261 -173 272 -173 44 0 43 25 -6
324 -26 157 -44 289 -40 293 4 3 53 -25 110 -64 91 -62 102 -73 101 -99 0 -16
-4 -37 -8 -46 -10 -22 26 -58 59 -58 20 0 41 25 125 147 55 81 100 156 100
169 0 26 -48 61 -65 48 -7 -5 -24 -18 -39 -28 l-27 -19 -77 53 c-42 29 -111
76 -152 105 -41 28 -125 86 -187 128 -119 82 -158 95 -168 54z m300 -202 c33
-23 103 -71 156 -108 108 -75 145 -84 186 -45 13 12 23 16 23 10 0 -14 -144
-228 -173 -257 l-20 -20 8 20 c18 45 16 71 -5 97 -26 33 -299 223 -308 214 -6
-7 5 -81 64 -445 20 -117 34 -215 31 -217 -3 -3 -96 58 -285 189 -211 148
-227 157 -256 157 -17 0 -40 -9 -53 -22 -45 -42 -22 5 63 128 86 123 112 151
92 96 -21 -55 -6 -74 129 -168 149 -105 180 -124 185 -118 3 2 -1 41 -9 86
-18 113 -83 557 -83 569 0 6 44 -20 98 -57 53 -37 124 -86 157 -109z"/>
<path d="M13982 31370 c-64 -29 -155 -127 -267 -289 -125 -181 -132 -194 -105
-221 26 -26 62 -26 86 1 13 14 25 18 42 14 27 -7 390 -255 417 -286 15 -16 16
-23 5 -48 -6 -16 -9 -39 -5 -50 7 -24 51 -38 74 -24 17 10 145 188 188 260 28
48 25 75 -13 92 -27 12 -50 5 -74 -24 -16 -19 -40 -12 -100 29 -24 17 -49 34
-55 38 -6 5 11 26 42 53 28 25 64 66 79 93 25 41 28 57 29 132 0 76 -3 90 -27
126 -32 49 -78 90 -125 109 -50 21 -139 19 -191 -5z m177 -39 c56 -29 107 -87
122 -138 30 -110 -51 -248 -170 -285 -22 -7 -41 -16 -41 -19 0 -6 61 -50 165
-121 50 -35 99 -36 133 -5 19 17 24 18 19 5 -8 -23 -178 -270 -183 -265 -2 2
1 18 6 36 14 48 -7 79 -87 134 -37 25 -102 69 -143 98 -245 170 -246 170 -299
138 -17 -10 -31 -16 -31 -13 0 9 171 256 217 314 102 126 200 167 292 121z"/>
<path d="M13945 31198 c-55 -30 -136 -131 -119 -148 5 -4 53 -38 107 -74 107
-73 115 -74 175 -29 90 68 79 182 -23 240 -43 24 -107 30 -140 11z m134 -60
c29 -22 50 -55 51 -77 0 -23 -42 -79 -69 -91 -20 -9 -32 -5 -87 30 -84 55 -91
64 -73 97 7 14 30 36 49 50 41 28 87 25 129 -9z"/>
<path d="M13447 30559 c-103 -24 -211 -119 -268 -234 -32 -65 -34 -76 -34
-170 0 -91 3 -106 31 -165 77 -163 275 -271 441 -240 117 21 204 79 272 179
58 87 76 143 75 237 -1 71 -6 91 -37 156 -41 84 -108 157 -179 194 -95 48
-209 65 -301 43z m269 -79 c74 -38 139 -104 175 -177 20 -40 24 -63 24 -143 0
-85 -4 -101 -30 -155 -36 -73 -104 -144 -176 -182 -48 -25 -64 -28 -149 -28
-82 0 -103 4 -153 27 -74 35 -160 121 -193 193 -95 207 60 477 290 503 84 10
134 1 212 -38z"/>
<path d="M13395 30347 c-111 -37 -155 -87 -155 -177 0 -93 51 -150 170 -191
96 -32 264 -33 338 0 119 53 158 173 87 267 -33 44 -62 62 -133 86 -74 25
-250 34 -307 15z m274 -53 c108 -30 168 -95 152 -165 -20 -88 -76 -122 -212
-127 -193 -8 -329 62 -329 171 0 32 38 87 76 109 64 38 200 43 313 12z"/>
<path d="M16591 30246 c-8 -9 -19 -16 -26 -16 -6 0 -20 -9 -30 -20 -10 -11
-23 -20 -30 -20 -7 0 -20 -9 -30 -20 -10 -11 -23 -20 -30 -20 -7 0 -20 -9 -29
-19 -10 -11 -44 -36 -77 -57 -54 -34 -59 -39 -59 -73 0 -25 11 -52 34 -87 28
-42 42 -53 72 -58 29 -6 41 -3 58 13 12 12 27 21 33 21 5 0 18 9 28 20 10 11
24 20 30 20 7 0 19 7 26 16 7 9 43 36 79 60 97 65 100 68 100 103 0 31 -40
102 -72 128 -25 21 -64 25 -77 9z"/>
<path d="M12832 29868 c-7 -7 -12 -21 -12 -32 0 -46 -31 -100 -167 -298 -89
-129 -160 -220 -188 -243 -25 -21 -45 -45 -45 -55 0 -11 41 -53 95 -100 77
-66 100 -81 122 -78 l28 3 -3 97 c-3 102 10 176 33 184 7 3 35 -10 62 -28 26
-19 114 -80 194 -135 80 -56 151 -108 158 -117 10 -12 10 -23 2 -49 -7 -19 -9
-41 -6 -49 8 -21 53 -40 71 -30 20 11 214 292 214 311 0 8 -9 25 -21 37 -23
24 -38 23 -78 -8 -14 -11 -32 -16 -43 -12 -29 9 -399 265 -405 280 -6 15 24
61 48 75 10 5 46 12 81 15 118 12 118 39 1 156 -87 87 -115 102 -141 76z m120
-189 c-34 -3 -72 -13 -86 -23 -24 -15 -95 -103 -96 -117 0 -3 26 -24 58 -46
193 -132 293 -202 341 -235 60 -42 111 -50 143 -21 29 26 32 8 6 -29 -14 -18
-55 -77 -92 -131 -38 -54 -70 -97 -72 -94 -2 2 1 18 7 35 19 54 -3 76 -242
241 -241 165 -236 164 -273 102 -27 -47 -36 -106 -27 -181 5 -36 7 -67 5 -68
-1 -2 -36 25 -77 60 l-75 63 34 28 c18 15 93 114 166 220 164 237 173 251 188
306 l12 44 70 -74 70 -74 -60 -6z"/>
<path d="M31948 29862 c-15 -6 -15 -10 2 -42 l19 -35 1 43 c0 23 -1 42 -2 41
-2 0 -10 -3 -20 -7z"/>
<path d="M15827 29734 c-107 -72 -161 -114 -168 -132 -12 -31 0 -64 43 -124
28 -38 32 -40 71 -36 29 4 66 22 120 59 43 30 87 59 98 65 10 6 27 18 37 27
10 10 23 17 28 17 5 0 21 12 37 25 35 31 35 68 -1 126 -65 101 -75 100 -265
-27z"/>
<path d="M31762 29814 l-33 -14 20 -29 c13 -18 21 -45 21 -69 l0 -40 42 13
c23 6 43 16 45 22 7 19 -33 128 -47 130 -8 1 -30 -5 -48 -13z"/>
<path d="M31453 29693 c-18 -9 -33 -23 -33 -31 0 -16 49 -122 57 -122 2 0 22
9 45 21 l40 21 -26 27 c-18 19 -26 38 -26 64 0 41 -8 44 -57 20z"/>
<path d="M31275 29601 c-16 -10 -130 -73 -251 -139 -154 -85 -237 -125 -275
-132 -58 -11 -58 -11 -152 -90 -36 -31 -103 -77 -149 -103 -46 -26 -103 -59
-128 -74 -73 -42 -107 -61 -270 -150 -85 -47 -180 -99 -210 -116 -228 -125
-466 -283 -620 -412 -101 -84 -264 -254 -325 -340 -73 -101 -148 -178 -204
-208 -26 -15 -94 -43 -150 -62 -55 -19 -163 -63 -239 -96 -352 -157 -573 -224
-872 -264 -272 -36 -445 -28 -613 31 -216 75 -301 100 -472 135 -107 22 -122
23 -580 18 -686 -6 -775 -5 -817 10 -21 7 -59 35 -85 63 -26 27 -64 58 -84 68
-35 18 -37 18 -53 1 -9 -10 -16 -22 -16 -28 0 -5 -9 -18 -20 -28 -26 -24 -25
-42 2 -51 13 -4 50 -33 83 -65 34 -32 83 -69 111 -81 l49 -23 606 4 606 3 179
-60 c98 -33 242 -74 319 -92 217 -48 255 -63 390 -153 210 -140 364 -297 590
-602 255 -343 432 -648 496 -852 11 -37 30 -93 42 -123 27 -73 27 -193 -2
-410 -26 -198 -36 -254 -63 -344 -94 -324 -350 -560 -723 -664 -181 -51 -358
-74 -795 -102 -408 -26 -460 -31 -566 -50 -434 -78 -838 -273 -1289 -620 -138
-107 -245 -182 -580 -410 -115 -78 -212 -144 -214 -146 -3 -3 10 -19 27 -37
18 -18 32 -38 32 -44 0 -6 6 -16 14 -22 10 -8 19 -7 37 7 60 47 254 172 266
172 7 0 13 -5 13 -11 0 -34 -157 -213 -249 -283 -59 -46 -132 -86 -192 -105
-32 -10 -36 -15 -31 -39 3 -15 14 -42 24 -60 10 -18 18 -45 18 -60 0 -15 6
-35 13 -44 12 -15 19 -14 93 16 183 73 362 233 515 460 275 406 627 692 1069
868 63 25 131 50 150 56 19 6 67 20 105 32 202 61 336 78 760 100 398 21 733
60 890 106 278 79 532 264 677 490 109 171 167 353 208 659 5 44 22 161 36
260 55 386 72 469 154 730 46 148 64 225 115 485 25 129 64 327 86 440 97 492
155 671 271 837 152 218 386 428 677 611 109 68 198 114 631 325 96 47 217
114 269 149 122 82 132 88 158 88 12 0 25 5 28 10 3 6 16 10 29 10 39 0 58 33
65 109 4 39 9 72 11 74 10 8 297 165 380 208 47 24 87 44 89 46 2 1 -6 14 -17
30 -10 15 -25 45 -31 66 -7 20 -13 37 -14 37 -1 0 -15 -9 -32 -19z m-2595
-1948 c0 -10 -14 -56 -31 -103 -69 -190 -110 -332 -129 -440 -5 -30 -18 -107
-29 -170 -11 -63 -34 -195 -51 -293 -58 -341 -70 -403 -119 -587 -27 -102 -52
-197 -55 -212 -12 -53 -35 -32 -87 80 -66 140 -131 254 -247 432 -234 359
-466 637 -675 809 -42 35 -77 70 -77 77 0 10 13 14 43 14 64 0 284 28 401 50
213 41 455 123 731 246 134 59 277 112 308 113 10 1 17 -6 17 -16z"/>
<path d="M15350 29412 c-8 -4 -34 -19 -57 -34 -24 -16 -46 -28 -51 -28 -5 0
-17 -9 -27 -20 -10 -11 -23 -20 -30 -20 -7 0 -20 -9 -30 -20 -10 -11 -23 -20
-30 -20 -7 0 -20 -9 -30 -20 -10 -11 -24 -20 -32 -20 -8 0 -21 -16 -29 -36
-14 -34 -14 -38 12 -82 39 -66 68 -92 103 -92 16 0 33 4 36 10 7 12 200 140
211 140 4 0 16 7 26 17 10 9 28 21 40 27 12 6 26 26 32 44 7 27 5 38 -19 74
-54 84 -80 100 -125 80z"/>
<path d="M14724 28982 c-16 -8 -43 -27 -61 -41 -18 -14 -51 -39 -73 -56 -23
-16 -60 -46 -83 -66 -23 -20 -52 -41 -64 -48 -17 -9 -23 -21 -23 -48 0 -28 10
-47 46 -89 67 -79 81 -77 214 31 27 22 68 54 91 70 72 52 109 92 109 117 0 35
-74 134 -104 140 -13 3 -37 -2 -52 -10z"/>
<path d="M12232 28958 c-7 -7 -12 -24 -12 -38 0 -18 -20 -46 -71 -98 -146
-150 -183 -319 -106 -486 29 -61 111 -145 182 -186 218 -125 475 -29 572 212
43 105 28 239 -37 341 -23 37 -36 48 -52 45 -36 -5 -44 -30 -25 -88 19 -59 22
-145 6 -187 -5 -15 -26 -46 -45 -69 -84 -104 -231 -97 -369 17 -70 57 -105
112 -105 163 0 91 65 138 230 165 107 17 124 26 118 62 -2 17 -22 34 -73 62
-38 21 -92 52 -118 68 -52 31 -76 36 -95 17z m134 -90 c51 -29 94 -56 94 -60
0 -5 -12 -8 -27 -8 -38 0 -176 -36 -212 -54 -40 -21 -78 -69 -92 -117 -30 -99
63 -229 217 -305 66 -33 88 -39 143 -39 103 0 181 49 233 147 18 35 23 59 23
126 0 82 0 83 15 50 8 -19 14 -66 15 -113 0 -101 -30 -172 -107 -248 -80 -80
-133 -102 -243 -102 -109 0 -170 24 -255 102 -73 67 -111 142 -118 232 -9 130
50 247 182 358 17 15 26 33 26 53 0 16 3 30 6 30 3 0 48 -24 100 -52z"/>
<path d="M14005 28379 c-173 -171 -174 -175 -92 -250 41 -39 59 -49 87 -49 31
0 48 13 167 132 121 121 133 136 133 168 -1 47 -70 127 -118 136 -32 6 -38 1
-177 -137z"/>
<path d="M19588 28406 c-3 -14 -1 -26 4 -26 14 0 22 30 11 41 -7 7 -12 2 -15
-15z"/>
<path d="M11666 28137 c-18 -13 -17 -23 18 -263 21 -137 41 -270 45 -297 5
-26 6 -49 2 -51 -3 -2 -51 26 -106 63 -104 71 -120 94 -96 138 21 40 -34 85
-73 60 -34 -23 -206 -282 -206 -311 0 -46 58 -61 97 -24 18 17 27 19 45 11 20
-9 141 -91 312 -211 140 -98 210 -142 227 -142 41 0 42 30 5 253 -54 333 -59
367 -53 373 8 8 197 -125 211 -148 8 -13 7 -26 -1 -49 -15 -39 -3 -66 33 -75
35 -9 59 17 167 179 88 129 93 146 58 174 -23 18 -39 16 -68 -7 -14 -11 -34
-20 -43 -20 -10 0 -100 57 -201 126 -323 222 -340 234 -348 234 -4 0 -15 -6
-25 -13z m139 -112 c231 -164 417 -285 439 -285 13 0 35 9 49 20 51 41 42 24
-87 -164 -60 -88 -83 -108 -63 -56 16 43 0 78 -53 115 -271 188 -270 188 -270
162 0 -14 23 -162 50 -330 28 -168 50 -308 50 -312 0 -13 -25 3 -260 165 -129
89 -248 166 -264 171 -29 8 -64 -3 -78 -25 -4 -6 -10 -8 -13 -4 -8 7 166 267
178 268 4 0 3 -9 -3 -19 -14 -28 -12 -63 5 -88 17 -25 270 -203 298 -211 15
-4 17 0 12 19 -6 29 -95 612 -95 628 0 18 11 13 105 -54z"/>
<path d="M13616 27947 c-9 -7 -22 -22 -29 -34 -7 -11 -43 -67 -82 -124 -74
-110 -104 -164 -105 -189 -1 -49 105 -116 166 -104 23 4 38 14 44 28 4 11 20
38 34 59 14 21 26 41 26 46 0 4 9 16 20 26 11 10 20 22 20 27 0 9 10 24 68 97
38 50 30 83 -34 135 -58 48 -95 57 -128 33z"/>
<path d="M13262 27288 c-12 -6 -30 -27 -38 -47 -9 -20 -24 -55 -35 -79 -10
-23 -19 -47 -19 -52 0 -5 -13 -37 -29 -72 -50 -110 -51 -115 -40 -147 8 -22
24 -35 71 -56 54 -25 65 -26 99 -16 22 7 39 18 39 26 0 8 13 42 29 77 15 35
38 87 50 116 11 28 31 74 42 101 29 66 15 96 -61 133 -60 30 -74 32 -108 16z"/>
<path d="M10291 26901 c-13 -18 -33 -31 -55 -35 -38 -7 -52 -35 -30 -63 22
-29 17 -47 -42 -176 -61 -133 -78 -157 -106 -157 -26 0 -43 -41 -29 -69 11
-19 20 -21 117 -21 100 0 105 1 115 24 13 28 -3 66 -27 66 -8 0 -12 5 -9 10 8
12 132 13 139 1 3 -5 -3 -11 -15 -14 -17 -5 -20 -12 -17 -44 l3 -38 143 -3
c142 -3 142 -2 153 21 14 30 -3 67 -30 67 -29 0 -44 25 -141 235 -50 110 -97
206 -102 213 -17 20 -46 14 -67 -17z m144 -233 c55 -116 107 -215 115 -219 8
-4 24 -11 35 -16 24 -9 -71 -16 -167 -11 -59 3 -61 4 -35 15 29 13 35 40 17
74 -9 17 -22 19 -106 19 -92 0 -95 -1 -104 -26 -15 -40 -12 -54 15 -64 14 -5
25 -12 25 -15 0 -3 -39 -5 -86 -5 -54 0 -83 4 -79 10 3 6 15 10 25 10 25 0 46
32 113 178 57 124 66 157 47 193 -8 15 -7 19 4 19 8 0 28 11 43 25 15 13 30
25 33 25 3 0 50 -95 105 -212z"/>
<path d="M10262 26661 c-18 -39 -32 -73 -32 -76 0 -3 30 -5 66 -5 75 0 75 -1
25 99 l-27 53 -32 -71z"/>
<path d="M10689 26790 l-84 -26 0 -39 c0 -33 4 -40 25 -45 l25 -6 3 -172 2
-172 -25 -12 c-19 -9 -25 -19 -25 -43 0 -53 13 -57 141 -45 149 14 149 15 149
54 0 38 -15 56 -47 56 -14 0 -23 6 -23 15 0 12 13 15 55 15 93 0 147 34 181
115 19 45 22 164 6 206 -10 24 -9 26 16 22 26 -4 132 -107 132 -128 0 -22 -83
-105 -112 -113 -42 -11 -55 -33 -40 -66 l12 -26 244 0 c265 0 271 1 264 56 -2
22 -10 29 -41 38 -29 8 -51 26 -87 71 l-48 60 40 47 c43 52 93 73 134 58 23
-9 24 -11 26 -172 l3 -163 28 -3 c21 -3 40 9 90 55 34 31 79 73 100 93 l38 35
-3 -40 c-2 -32 -7 -40 -28 -45 -19 -4 -26 -13 -28 -36 -5 -55 0 -55 315 -52
324 4 351 9 391 68 30 43 26 109 -8 145 -18 19 -20 27 -11 43 16 30 13 84 -5
111 -30 42 -77 54 -244 59 -147 4 -156 3 -174 -16 -23 -27 -15 -68 17 -78 33
-10 37 -21 37 -120 0 -104 -10 -127 -55 -122 l-30 3 -3 159 c-4 219 -13 227
-138 114 -44 -40 -90 -82 -102 -92 l-22 -19 0 36 c0 29 4 37 18 37 40 0 57 54
27 84 -13 13 -68 15 -376 15 -230 1 -367 -3 -380 -9 -10 -6 -19 -21 -19 -34
l0 -24 -30 28 c-59 55 -189 63 -331 20z m101 -37 l0 -26 26 24 c34 32 119 34
161 3 92 -67 90 -267 -2 -324 -45 -28 -123 -27 -159 1 l-26 20 0 -60 c0 -64
15 -91 51 -91 10 0 19 -4 19 -10 0 -5 -6 -10 -12 -10 -7 0 -53 -5 -102 -10
-49 -6 -91 -8 -94 -6 -3 3 6 14 19 25 23 19 24 24 27 182 4 204 0 226 -40 243
l-31 13 74 26 c93 32 89 32 89 0z m1223 -300 c5 -7 17 -13 28 -13 10 0 19 -4
19 -10 0 -6 -42 -10 -105 -10 -63 0 -105 4 -105 10 0 6 9 10 20 10 30 0 41 33
38 119 l-3 79 -125 -113 -125 -114 -5 153 c-5 154 -13 186 -46 186 -8 0 -14 5
-14 10 0 6 42 10 105 10 100 0 134 -10 80 -24 -31 -8 -37 -31 -33 -124 l3 -73
125 114 125 114 5 -156 c3 -86 9 -162 13 -168z m-698 307 c3 -5 -1 -10 -10
-10 -27 0 -28 -29 -4 -65 13 -19 27 -35 30 -35 10 0 49 59 49 75 0 9 -7 18
-15 21 -37 15 -8 24 75 24 50 0 90 -3 90 -7 0 -5 -18 -16 -39 -26 -21 -9 -58
-42 -84 -74 l-46 -57 47 -59 c56 -71 97 -107 123 -107 10 0 19 -4 19 -10 0 -6
-46 -10 -117 -10 -116 0 -118 1 -94 19 27 21 23 46 -13 80 l-24 23 -28 -42
-28 -42 25 -19 c24 -19 24 -19 -74 -19 -63 0 -96 4 -92 10 3 6 15 10 26 10 20
0 107 84 129 125 11 21 7 29 -45 94 -37 46 -69 75 -91 83 -19 6 -34 16 -34 20
0 12 218 10 225 -2z m1122 -17 c50 -37 40 -92 -21 -118 l-28 -12 33 -12 c82
-28 105 -97 49 -145 -38 -32 -83 -38 -245 -34 -124 3 -129 4 -100 18 l30 15 3
138 3 138 -31 13 c-17 7 -27 16 -23 20 5 5 74 6 155 4 130 -4 151 -7 175 -25z"/>
<path d="M10842 26730 c-32 -13 -52 -68 -52 -141 0 -105 43 -159 106 -130 34
15 44 49 44 142 0 76 -2 82 -29 110 -32 31 -35 32 -69 19z m54 -62 c12 -37 8
-146 -6 -163 -19 -22 -39 -18 -50 11 -13 33 -13 130 0 155 14 26 47 24 56 -3z"/>
<path d="M12260 26674 l0 -57 40 6 c52 7 70 22 70 58 0 33 -27 49 -81 49 -29
0 -29 -1 -29 -56z m68 4 c-6 -18 -28 -21 -28 -4 0 9 7 16 16 16 9 0 14 -5 12
-12z"/>
<path d="M12260 26520 l0 -60 46 0 c66 0 84 13 84 60 0 47 -18 60 -84 60 l-46
0 0 -60z m95 0 c0 -9 -11 -16 -27 -18 -23 -3 -28 1 -28 18 0 17 5 21 28 18 16
-2 27 -9 27 -18z"/>
<path d="M12985 26603 c-26 -6 -55 -32 -55 -49 0 -8 -13 -42 -30 -76 -16 -34
-30 -65 -30 -70 0 -4 -13 -35 -30 -69 -16 -34 -32 -77 -36 -95 -5 -29 -10 -34
-34 -34 -18 0 -35 -9 -47 -24 -19 -23 -19 -23 -42 -5 -57 47 -171 48 -248 3
-79 -46 -121 -162 -94 -262 23 -84 111 -151 198 -152 23 0 44 -3 47 -8 2 -4
-8 -34 -23 -67 -67 -145 -70 -159 -51 -194 5 -10 36 -30 70 -45 52 -23 65 -26
93 -17 28 10 57 47 57 73 0 4 23 54 50 110 28 56 50 109 50 116 0 16 76 98
153 165 l59 50 -4 -34 c-2 -26 -10 -37 -31 -47 -24 -12 -28 -19 -25 -50 l3
-37 129 -3 c88 -2 133 1 143 9 23 19 12 62 -19 77 l-28 13 0 154 c0 126 -3
156 -16 169 -8 9 -22 16 -29 16 -12 0 -69 -48 -177 -149 l-38 -35 0 37 c0 29
4 37 18 37 21 0 42 18 42 37 0 6 14 43 31 80 112 246 120 272 103 304 -19 38
-117 82 -159 72z m-368 -434 c66 -25 96 -94 57 -133 -42 -43 -98 0 -88 66 6
37 6 38 -25 38 -38 0 -66 -27 -80 -77 -22 -78 -6 -155 40 -187 47 -33 137 -16
177 32 8 10 12 12 12 4 0 -7 -18 -32 -39 -54 -37 -41 -41 -42 -107 -46 -57 -2
-76 1 -109 20 -93 54 -113 206 -37 292 42 46 138 69 199 45z m588 -329 l30
-15 -57 -3 c-32 -2 -84 -2 -115 0 -55 3 -57 4 -30 15 36 17 48 52 45 135 l-3
68 -127 -115 c-70 -63 -129 -115 -132 -115 -4 0 -6 72 -6 160 l0 161 -30 13
c-17 7 -27 15 -23 19 10 10 201 8 207 -2 3 -5 -5 -12 -19 -15 -31 -8 -37 -31
-33 -123 l3 -71 125 113 125 113 5 -161 5 -162 30 -15z m-433 256 c9 -13 10
-142 2 -173 -8 -30 -24 -30 -24 0 0 25 -17 47 -35 47 -7 0 -28 -16 -48 -35
-49 -48 -97 -51 -134 -9 -26 28 -31 93 -12 141 l11 28 15 -43 c37 -106 183
-83 183 29 0 32 3 37 18 32 9 -4 20 -11 24 -17z"/>
<path d="M9741 26301 c-13 -18 -33 -31 -55 -35 -38 -7 -52 -35 -30 -63 22 -29
17 -47 -42 -176 -61 -133 -78 -157 -106 -157 -26 0 -43 -41 -29 -69 11 -19 20
-21 117 -21 100 0 105 1 115 24 13 27 -3 66 -26 66 -8 0 -15 2 -15 4 0 8 72
156 76 156 4 0 74 -148 74 -155 0 -2 -9 -5 -21 -8 -17 -5 -20 -12 -17 -44 l3
-38 142 -3 c137 -2 142 -2 154 19 14 28 -3 69 -29 69 -30 0 -44 24 -142 235
-50 110 -97 206 -102 213 -17 20 -46 14 -67 -17z m144 -233 c55 -116 107 -215
115 -219 8 -4 24 -11 35 -16 24 -9 -71 -16 -167 -11 -59 3 -61 4 -35 15 15 7
27 20 27 30 0 10 -25 73 -57 141 l-57 124 -54 -114 c-69 -145 -73 -164 -38
-178 14 -5 26 -12 26 -15 0 -3 -39 -5 -86 -5 -54 0 -83 4 -79 10 3 6 15 10 25
10 25 0 46 32 113 178 57 124 66 157 47 193 -8 15 -7 19 4 19 8 0 28 11 43 25
15 13 30 25 33 25 3 0 50 -95 105 -212z"/>
<path d="M10482 26214 c-16 -11 -22 -26 -22 -55 l0 -40 -37 40 c-87 91 -258
74 -330 -32 -59 -86 -47 -235 24 -299 62 -56 190 -75 261 -39 79 41 136 143
100 179 -20 20 -40 14 -79 -24 -25 -25 -48 -37 -75 -40 -42 -5 -75 9 -59 25
19 18 190 83 216 82 16 -1 35 9 50 25 55 59 59 55 59 -55 0 -99 0 -100 -27
-113 -31 -15 -42 -51 -23 -74 10 -11 41 -14 141 -14 l129 0 10 26 c12 30 2 51
-31 68 -23 11 -24 17 -27 114 -1 56 0 102 4 102 4 0 23 -18 42 -40 25 -30 39
-39 53 -35 16 5 19 1 19 -26 0 -83 53 -167 124 -200 54 -24 148 -24 201 0 49
22 99 77 115 127 8 22 10 63 7 102 -6 79 -41 135 -107 171 -94 52 -240 24
-296 -58 l-24 -36 7 35 c18 86 0 114 -60 92 -40 -14 -300 -17 -326 -2 -13 6
-24 5 -39 -6z m395 -38 c-3 -7 -9 -34 -12 -60 -4 -25 -10 -48 -14 -50 -4 -3
-16 9 -26 25 -22 32 -66 54 -90 45 -12 -4 -15 -27 -15 -120 0 -130 8 -161 47
-179 27 -11 25 -12 -30 -15 -31 -2 -83 -2 -115 0 l-57 3 30 15 30 15 3 144 3
143 -28 -7 c-15 -3 -47 -25 -70 -48 -47 -45 -49 -43 -37 44 l6 44 163 -3 c103
-2 170 0 182 7 25 14 36 14 30 -3z m-521 -15 c39 -18 74 -67 74 -104 0 -10
-39 -31 -112 -60 -62 -24 -114 -49 -116 -55 -7 -21 52 -73 90 -79 51 -8 81 2
124 39 l37 33 -16 -30 c-8 -17 -29 -43 -46 -59 -25 -24 -42 -30 -90 -34 -75
-5 -122 10 -160 53 -83 94 -59 238 49 293 54 27 111 28 166 3z m829 0 c74 -34
105 -86 105 -174 -1 -107 -73 -177 -184 -177 -103 0 -174 62 -184 159 -8 88
30 159 102 192 52 24 110 24 161 0z"/>
<path d="M10222 26115 c-20 -25 -39 -101 -28 -112 10 -10 99 41 119 68 15 22
17 31 8 48 -17 31 -73 29 -99 -4z m56 -27 c-3 -7 -13 -15 -24 -17 -16 -3 -17
-1 -5 13 16 19 34 21 29 4z"/>
<path d="M11019 26121 c-18 -15 -23 -28 -23 -59 3 -87 93 -212 152 -212 38 0
72 30 72 64 0 64 -69 184 -120 211 -38 20 -53 19 -81 -4z m91 -58 c40 -45 72
-116 68 -146 -8 -59 -87 -6 -129 87 -22 48 -23 68 -7 84 19 19 34 14 68 -25z"/>
<path d="M12164 26148 c-44 -40 -90 -82 -102 -92 l-22 -19 0 36 c0 29 4 37 18
37 40 0 57 54 27 84 -13 13 -68 15 -384 15 -323 1 -372 -1 -385 -15 -31 -30
-14 -84 26 -84 16 0 18 -11 18 -114 l0 -115 -27 -13 c-31 -15 -42 -51 -23 -74
18 -21 502 -21 519 0 21 25 9 69 -19 76 -25 6 -25 8 -28 118 -3 109 -2 113 20
121 13 5 32 5 43 1 19 -7 20 -19 25 -171 l5 -164 28 -3 c21 -3 40 9 90 55 34
31 79 73 100 93 l38 35 -3 -40 c-2 -32 -7 -40 -28 -45 -18 -4 -26 -13 -28 -34
-6 -50 9 -56 143 -56 134 0 149 6 143 56 -2 21 -10 30 -28 34 l-25 6 -3 159
c-4 218 -13 226 -138 113z m109 -295 c5 -7 17 -13 28 -13 10 0 19 -4 19 -10 0
-6 -42 -10 -105 -10 -63 0 -105 4 -105 10 0 6 9 10 20 10 30 0 41 33 38 119
l-3 79 -125 -113 -125 -114 -5 153 c-5 154 -13 186 -46 186 -8 0 -14 5 -14 10
0 6 42 10 105 10 100 0 134 -10 80 -24 -31 -8 -37 -31 -33 -124 l3 -73 125
114 125 114 5 -156 c3 -86 9 -162 13 -168z m-473 307 c0 -5 -6 -10 -14 -10
-34 0 -46 -41 -46 -152 0 -120 10 -158 40 -158 11 0 20 -4 20 -10 0 -6 -42
-10 -105 -10 -63 0 -105 4 -105 10 0 6 9 10 20 10 32 0 40 33 40 170 l0 131
-77 -3 -78 -3 -3 -116 c-3 -131 5 -164 45 -182 27 -11 25 -12 -29 -15 -32 -2
-84 -2 -115 0 l-58 3 30 15 30 15 3 120 c3 143 0 163 -33 171 -67 17 -5 24
205 24 147 0 230 -4 230 -10z m-190 -170 c0 -120 -4 -129 -55 -116 -25 6 -25
8 -25 110 0 56 3 106 7 109 3 4 21 7 40 7 l33 0 0 -110z"/>
<path d="M18353 25606 c-15 -13 -47 -29 -69 -36 -36 -11 -45 -10 -68 5 -21 14
-40 17 -85 12 -46 -4 -62 -1 -75 12 -11 10 -32 16 -62 15 -74 -2 -114 -57 -83
-116 8 -15 7 -28 -3 -51 -20 -48 -14 -164 10 -197 17 -23 19 -38 15 -121 -4
-76 -9 -98 -26 -116 -16 -18 -20 -38 -22 -110 -2 -81 0 -92 26 -135 22 -36 27
-53 20 -70 -11 -30 2 -65 28 -73 11 -3 22 -18 26 -36 9 -42 42 -69 82 -69 27
0 45 10 87 50 l53 50 19 -21 c35 -38 101 -70 150 -72 39 -2 49 2 67 24 31 38
100 45 162 18 51 -23 162 -28 208 -10 24 9 33 8 54 -9 34 -27 64 -25 97 5 31
29 36 87 9 118 -18 20 -18 20 15 1 19 -10 43 -31 54 -46 26 -37 62 -36 98 2
15 17 35 30 43 30 9 0 25 -13 37 -30 14 -20 30 -30 47 -30 15 0 36 12 53 30
15 17 35 30 43 30 9 0 25 -13 37 -30 27 -38 63 -39 98 -2 58 59 58 59 107 13
24 -22 51 -41 60 -41 8 0 33 11 55 25 22 14 63 34 92 46 l51 20 26 -24 c71
-65 101 -71 151 -27 19 16 39 29 43 30 5 0 20 -13 34 -30 14 -17 34 -30 48
-30 14 0 34 13 48 30 14 17 30 30 35 30 5 0 22 -16 36 -35 34 -45 68 -46 106
-5 15 17 34 30 42 30 8 0 24 -13 36 -30 31 -41 65 -40 108 5 39 42 46 43 65 9
26 -50 83 -51 117 -2 7 10 24 18 37 18 22 0 24 -3 18 -32 -3 -18 -6 -35 -5
-38 1 -72 4 -83 27 -105 31 -32 86 -34 115 -5 24 24 26 76 4 101 -15 17 -15
21 6 54 l22 35 28 -30 c34 -37 63 -38 96 -5 14 14 28 25 33 25 4 0 17 -11 29
-25 30 -34 56 -31 97 9 19 19 43 37 53 40 41 13 45 87 6 109 -21 12 -20 238 2
272 26 40 15 77 -31 100 -22 11 -56 30 -75 42 -46 30 -67 29 -115 -4 -79 -54
-98 -61 -126 -43 -14 8 -39 30 -55 48 -24 28 -34 32 -57 27 -15 -4 -36 -20
-48 -36 -26 -37 -38 -37 -70 2 -18 22 -34 32 -54 32 -20 0 -36 -10 -54 -32
-24 -28 -61 -43 -61 -23 0 18 -42 52 -64 52 -12 0 -35 -13 -51 -30 -27 -28
-65 -41 -65 -22 0 18 -42 52 -65 52 -13 0 -32 -11 -43 -24 -10 -14 -33 -36
-49 -50 l-31 -26 -102 50 c-96 46 -104 49 -129 35 -15 -7 -33 -21 -40 -29 -22
-27 -67 -19 -108 18 -57 50 -72 52 -145 12 -34 -19 -82 -40 -106 -47 -44 -13
-44 -13 -77 24 -42 45 -71 47 -110 7 -16 -16 -34 -30 -40 -30 -6 0 -22 14 -37
30 -15 18 -36 30 -50 30 -14 0 -37 -13 -53 -30 -16 -16 -34 -30 -40 -30 -6 0
-22 14 -37 30 -40 45 -64 39 -131 -31 -35 -36 -56 -66 -53 -75 3 -8 2 -14 -2
-14 -5 0 -16 18 -26 41 l-18 41 25 26 c40 43 54 83 55 152 2 125 -43 217 -129
261 -59 29 -165 20 -221 -21 -30 -22 -56 -17 -139 26 -60 31 -109 31 -146 0z
m124 -62 l28 -26 -30 20 c-17 11 -44 22 -60 25 l-30 4 32 2 c22 1 41 -7 60
-25z m367 -5 c37 -25 61 -55 70 -89 5 -17 -1 -11 -18 16 -42 68 -102 94 -172
75 -21 -6 -40 -9 -42 -6 -7 6 60 23 97 24 20 1 48 -8 65 -20z m-816 -9 c5 -13
3 -13 -11 -1 -9 7 -26 11 -37 8 -11 -3 -20 -1 -20 5 0 15 63 4 68 -12z m162
-10 c13 -9 13 -10 0 -10 -8 0 -22 5 -30 10 -13 9 -13 10 0 10 8 0 22 -5 30
-10z m285 -10 c18 -20 17 -20 -36 -20 -64 0 -122 -25 -165 -69 l-31 -32 -6 28
c-3 15 -8 35 -12 44 -4 11 5 20 34 33 88 40 188 47 216 16z m136 -16 c41 -15
95 -27 121 -28 43 -1 48 -4 48 -23 0 -21 -2 -22 -26 -11 -20 10 -30 9 -53 -5
-28 -16 -30 -16 -68 12 -22 16 -48 31 -58 32 -15 3 -56 49 -43 49 2 0 38 -12
79 -26z m-518 -3 c-61 -8 -84 -26 -118 -95 -26 -56 -34 -38 -10 22 24 59 60
82 125 81 l55 -2 -52 -6z m117 -64 c0 -12 0 -11 -24 28 l-17 30 20 -24 c12
-13 21 -28 21 -34z m292 -36 c-15 -21 -29 -27 -70 -29 -29 -2 -59 1 -68 6 -10
6 3 7 38 4 46 -3 56 -1 81 22 15 14 28 37 28 53 l2 28 4 -29 c3 -19 -2 -38
-15 -55z m-52 59 c0 -13 -46 -24 -62 -14 -9 6 -2 11 22 15 19 4 36 7 38 8 1 0
2 -3 2 -9z m-265 -33 c7 -25 -7 -71 -25 -82 -6 -4 -18 -4 -27 -1 -12 5 -14 9
-5 18 7 7 12 26 12 43 0 18 3 35 7 38 14 14 33 6 38 -16z m-81 -58 c-9 -10
-13 -22 -10 -28 4 -5 -7 -3 -23 5 -21 11 -28 20 -24 31 4 11 8 13 11 5 2 -7
10 -12 17 -12 16 0 28 27 15 35 -6 4 -10 12 -10 18 1 7 10 1 21 -12 18 -22 18
-25 3 -42z m468 34 c-3 -16 -7 -22 -10 -15 -4 13 4 42 11 42 2 0 2 -12 -1 -27z
m145 16 c-41 -24 -39 -67 7 -118 l21 -24 -22 12 c-23 12 -53 59 -53 82 0 16
40 59 54 59 6 0 3 -5 -7 -11z m43 -9 c0 -11 -4 -20 -8 -20 -4 0 -8 9 -8 20 0
11 4 20 8 20 4 0 8 -9 8 -20z m166 -32 c-7 -43 -33 -94 -43 -85 -2 3 2 16 10
29 9 12 19 40 22 61 10 51 19 47 11 -5z m-50 -4 c-4 -9 -9 -15 -11 -12 -3 3
-3 13 1 22 4 9 9 15 11 12 3 -3 3 -13 -1 -22z m-96 -58 l0 -51 -30 54 c-17 30
-30 55 -30 56 0 1 14 0 30 -3 29 -4 30 -6 30 -56z m-176 -160 c25 -94 32 -135
21 -124 -10 10 -75 284 -74 313 1 20 5 10 14 -30 7 -33 24 -104 39 -159z
m-515 158 c16 -11 35 -15 62 -11 37 5 39 4 33 -16 -17 -60 -63 -89 -79 -49 -6
15 -8 14 -20 -8 -8 -14 -14 -35 -15 -47 0 -21 3 -22 45 -16 l44 6 -6 -50 c-12
-108 36 -266 106 -346 l32 -36 -30 -15 c-41 -22 -57 -20 -97 10 -27 21 -32 30
-23 40 6 8 18 14 25 14 18 0 18 10 -2 48 -18 38 -34 41 -34 8 0 -27 -24 -51
-40 -41 -8 5 -9 20 -5 42 5 28 2 40 -16 59 -12 13 -28 24 -35 24 -8 0 -21 25
-30 57 -24 82 -15 212 19 287 14 31 30 56 34 56 5 0 19 -7 32 -16z m301 -13
c-14 -5 -66 -29 -116 -55 -109 -55 -130 -60 -48 -10 82 50 135 74 164 73 l25
-1 -25 -7z m70 -35 c-92 -21 -127 -41 -159 -91 -79 -125 -29 -249 116 -280 51
-12 54 -13 21 -14 -47 -1 -119 30 -146 64 -31 39 -45 91 -40 147 10 97 120
188 228 187 30 -1 27 -2 -20 -13z m460 11 c0 -2 -15 -16 -32 -33 l-33 -29 29
33 c28 30 36 37 36 29z m-229 -134 c33 -69 24 -156 -24 -225 -51 -74 -91 -97
-210 -124 -141 -32 -154 -28 -25 6 121 33 151 46 192 87 43 42 66 99 66 168 0
59 -7 79 -45 140 l-19 30 22 -19 c12 -10 31 -39 43 -63z m-191 57 c-20 -13
-53 -13 -45 0 3 6 18 10 33 10 21 0 24 -2 12 -10z m-357 -7 c-7 -2 -19 -2 -25
0 -7 3 -2 5 12 5 14 0 19 -2 13 -5z m605 -18 c-3 -3 -9 2 -12 12 -6 14 -5 15
5 6 7 -7 10 -15 7 -18z m1038 -6 c10 -12 32 -28 47 -36 27 -14 28 -15 13 -38
-21 -31 -23 -304 -4 -323 10 -10 8 -14 -12 -19 -14 -4 -57 -23 -96 -43 -68
-35 -72 -36 -83 -18 -7 11 -28 28 -47 40 -27 16 -32 23 -24 34 11 12 11 302 0
332 -3 8 14 20 48 32 30 10 68 28 85 39 41 25 50 25 73 0z m-608 -49 c32 0 45
6 64 28 l23 28 27 -28 c37 -39 97 -40 129 0 l23 27 37 -34 c36 -35 36 -35 18
-61 -17 -23 -18 -39 -12 -168 4 -102 10 -148 20 -158 12 -11 9 -18 -19 -43
-35 -32 -48 -38 -48 -21 0 6 -13 18 -29 28 -26 16 -28 19 -15 37 19 25 20 315
2 333 -20 20 -65 14 -82 -10 -13 -18 -16 -51 -16 -151 0 -122 7 -162 33 -178
5 -4 -6 -21 -24 -38 -36 -32 -49 -38 -49 -21 0 6 -13 18 -29 28 -26 16 -28 19
-15 37 19 25 20 315 2 333 -20 20 -66 14 -82 -11 -20 -30 -11 -301 11 -323 12
-11 9 -18 -19 -43 -35 -32 -48 -38 -48 -21 0 6 -13 18 -29 28 -26 16 -28 19
-15 37 21 28 20 317 -1 335 -13 11 -11 17 17 49 l33 37 27 -28 c20 -22 35 -28
66 -28z m1393 -23 c-7 -7 -11 -63 -11 -166 0 -123 3 -158 15 -171 13 -15 11
-20 -20 -50 l-35 -33 -24 26 c-34 37 -89 37 -127 1 l-28 -27 -32 32 c-24 24
-29 35 -20 44 7 7 11 63 11 166 0 127 -3 158 -16 172 -15 16 -13 20 17 47 l33
30 33 -27 c35 -28 39 -36 23 -46 -15 -9 -13 -318 2 -333 7 -7 24 -12 38 -12
46 0 50 13 50 174 0 121 -3 153 -15 166 -14 16 -13 20 17 51 l33 34 34 -33
c25 -25 31 -36 22 -45z m179 31 c10 -3 9 -10 -4 -35 -20 -39 -23 -266 -4 -308
10 -23 17 -26 52 -23 l41 3 3 154 c2 122 -1 158 -12 176 -14 21 -12 25 17 53
l32 31 20 -23 c12 -13 27 -25 34 -27 11 -4 11 -11 -3 -36 -12 -25 -16 -62 -16
-166 l0 -133 31 -23 30 -23 -27 -26 c-15 -15 -37 -49 -50 -76 l-22 -48 5 61
c6 59 5 61 -21 71 -52 19 -100 12 -130 -19 l-28 -29 -31 34 c-22 26 -27 38
-18 47 18 18 15 308 -3 333 -13 17 -12 22 17 50 l32 32 21 -23 c11 -12 26 -24
34 -27z m464 22 c22 -17 46 -30 54 -30 13 0 12 -3 -1 -18 -14 -16 -17 -43 -17
-170 0 -137 2 -152 19 -164 18 -13 17 -15 -19 -46 l-39 -32 -30 30 c-28 29
-29 31 -15 59 11 22 14 62 12 168 l-3 138 -35 19 c-32 17 -39 18 -65 5 -67
-32 -66 -121 1 -127 35 -3 60 19 49 45 -6 17 -7 17 -20 -1 -14 -18 -45 -16
-45 2 0 18 29 34 49 27 38 -12 38 -68 0 -80 -17 -6 -19 -17 -19 -95 0 -84 1
-91 27 -115 18 -16 22 -25 13 -25 -7 0 -26 -12 -41 -26 l-26 -25 -31 31 c-27
27 -30 34 -21 60 6 16 9 62 7 102 l-3 73 33 -3 c37 -5 43 9 10 23 -13 6 -29
23 -36 38 -21 43 0 82 58 112 25 13 52 31 59 39 19 22 30 20 75 -14z m-2988
-34 c-11 -30 -22 -48 -24 -41 -3 12 34 95 42 95 2 0 -6 -24 -18 -54z m1836 33
c38 -19 40 -22 22 -32 -10 -5 -36 -23 -57 -40 l-38 -30 20 -21 c32 -35 41 -72
41 -180 l0 -102 -35 -34 -35 -34 -30 29 -30 29 22 12 c32 17 37 36 37 174 l1
124 -42 38 c-31 26 -37 35 -22 32 15 -4 32 4 55 25 19 17 38 31 42 31 4 0 26
-9 49 -21z m-1635 -29 c3 -11 13 -20 23 -20 10 0 21 -7 24 -16 7 -18 -10 -44
-28 -44 -6 0 -24 -7 -40 -15 l-28 -15 26 35 c25 33 27 55 6 55 -5 0 -19 -17
-30 -37 -11 -21 -19 -29 -16 -18 2 11 7 33 11 50 10 45 43 61 52 25z m123 0
c11 -11 20 -25 20 -32 0 -7 -5 -5 -12 5 -7 9 -26 23 -43 32 -27 13 -28 15 -7
15 12 0 31 -9 42 -20z m326 -27 c9 -21 25 -46 37 -55 19 -15 19 -18 5 -18 -10
0 -27 14 -40 30 -12 17 -28 30 -35 30 -22 0 -14 -27 14 -48 l28 -20 -45 8
c-25 5 -48 9 -52 10 -14 0 -8 38 7 44 9 3 12 12 9 23 -5 14 -4 15 4 4 8 -11
12 -10 21 8 17 31 30 26 47 -16z m1347 -41 c-24 -16 -33 -57 -33 -147 0 -68 5
-105 16 -127 15 -30 15 -31 -13 -59 l-28 -28 -33 30 c-31 28 -32 31 -17 51 20
29 22 316 3 337 -7 7 16 -1 51 -19 35 -17 60 -35 54 -38z m-2026 -39 c-3 -10
-5 -4 -5 12 0 17 2 24 5 18 2 -7 2 -21 0 -30z m1723 -104 c0 -90 -3 -109 -15
-109 -13 0 -15 20 -15 121 0 107 2 120 15 109 12 -10 15 -37 15 -121z m-940
-123 c-7 -7 -10 -1 -10 21 0 16 -11 51 -25 76 l-24 46 32 33 32 33 3 -99 c2
-59 -1 -103 -8 -110z m-415 165 c-21 -43 -29 -39 -8 4 9 19 18 33 21 31 2 -2
-4 -18 -13 -35z m-608 -43 c-2 -13 -4 -5 -4 17 -1 22 1 32 4 23 2 -10 2 -28 0
-40z m527 21 c14 -11 26 -26 26 -32 0 -7 -5 -4 -10 5 -13 22 -73 41 -102 33
-18 -5 -20 -4 -8 4 24 17 65 13 94 -10z m376 -37 c35 -26 50 -59 50 -110 0
-57 -24 -107 -65 -132 -46 -28 -57 -25 -14 4 119 81 59 284 -73 249 -42 -11
-50 -8 -15 7 30 13 86 4 117 -18z m-819 8 c10 -6 19 -20 19 -32 0 -20 -1 -20
-18 -5 -10 10 -22 17 -27 17 -16 0 -45 -33 -45 -52 0 -28 48 -68 84 -69 18 -1
24 -3 13 -6 -81 -21 -140 75 -82 132 27 28 29 29 56 15z m269 -70 c-11 -22
-23 -40 -25 -40 -3 0 4 18 15 40 11 22 23 40 25 40 3 0 -4 -18 -15 -40z m440
-30 c0 -36 -4 -42 -41 -66 -84 -53 -145 -57 -79 -6 19 15 53 46 74 69 22 24
41 43 43 43 1 0 3 -18 3 -40z m-630 -25 c-7 -8 -17 -15 -23 -15 -6 0 -2 7 9
15 25 19 30 19 14 0z m708 -26 c-4 -28 -41 -49 -71 -41 -12 3 -17 7 -12 8 6 1
22 5 38 8 22 5 27 12 27 38 0 23 3 29 11 21 6 -6 9 -21 7 -34z m-239 -73 c11
-10 45 -27 73 -37 43 -15 47 -18 25 -19 -59 0 -157 73 -157 118 0 11 6 7 19
-13 10 -16 28 -39 40 -49z m-169 44 c11 -8 7 -9 -15 -4 -37 8 -45 14 -19 14
10 0 26 -5 34 -10z m-374 -35 c8 -33 -1 -43 -16 -16 -6 12 -18 21 -26 21 -8 0
-12 5 -9 10 12 20 45 10 51 -15z m134 6 c0 -12 -109 -105 -116 -99 -8 8 86
108 102 108 8 0 14 -4 14 -9z m237 -7 c37 -9 83 -13 100 -11 18 3 35 2 38 -3
15 -24 -199 -25 -260 -1 -23 10 -26 14 -15 21 22 14 60 12 137 -6z m513 -50
c0 -12 -4 -14 -12 -7 -7 6 -20 13 -28 16 -9 3 -3 6 13 6 19 1 27 -4 27 -15z
m-580 -24 c19 -11 31 -19 25 -19 -5 0 -26 8 -45 19 -19 11 -30 19 -25 19 6 0
26 -8 45 -19z m2560 -68 c0 -7 -8 -12 -17 -10 -24 4 -27 24 -3 24 11 0 20 -6
20 -14z"/>
<path d="M19677 25123 c-4 -3 -7 -86 -7 -183 0 -176 0 -177 25 -200 21 -19 30
-22 43 -14 15 10 17 34 20 179 l2 168 -27 29 c-26 28 -43 34 -56 21z"/>
<path d="M12363 25228 c-22 -11 -33 -31 -138 -256 -61 -130 -58 -143 35 -190
95 -47 112 -39 168 81 24 51 61 129 82 173 51 107 47 127 -36 171 -64 35 -77
37 -111 21z"/>
<path d="M22655 24743 c44 -11 45 -17 45 -214 l0 -189 -32 -20 -33 -20 115 0
115 0 -32 20 -33 20 0 85 0 86 118 -3 117 -3 3 -65 c2 -73 -11 -108 -48 -127
-21 -11 -9 -13 90 -13 89 1 110 3 95 12 -43 23 -45 35 -45 217 0 97 4 181 8
188 4 7 19 16 32 22 19 7 -5 10 -90 9 -63 0 -105 -3 -93 -5 35 -7 46 -29 51
-108 l5 -75 -122 0 -121 0 0 73 c0 80 5 92 40 106 19 7 -5 10 -90 9 -63 0
-106 -3 -95 -5z"/>
<path d="M23341 24649 c-54 -10 -81 -34 -81 -69 0 -33 17 -50 51 -50 31 0 39
9 54 60 9 30 15 35 45 38 43 3 56 -5 65 -39 9 -35 -19 -60 -97 -90 -68 -25
-138 -85 -138 -117 0 -91 96 -120 189 -58 44 30 51 32 51 16 0 -47 87 -66 134
-29 34 27 33 40 -3 33 -42 -9 -51 16 -51 144 0 127 -9 147 -75 162 -47 11 -84
11 -144 -1z m139 -199 l0 -59 -45 -27 c-54 -31 -91 -27 -101 12 -10 39 12 69
75 103 31 17 59 31 64 31 4 0 7 -27 7 -60z"/>
<path d="M23890 24649 c-13 -5 -33 -17 -42 -26 -17 -15 -18 -15 -18 5 0 26 -9
27 -82 4 -60 -19 -83 -32 -55 -32 9 0 23 -10 31 -22 13 -18 16 -56 16 -204 l0
-183 -27 -20 c-14 -12 -24 -23 -22 -24 7 -6 209 16 209 22 0 4 -15 11 -32 16
l-33 10 -2 75 c-1 41 0 69 3 62 9 -21 60 -42 102 -42 49 0 101 34 124 80 26
50 24 159 -2 210 -30 59 -113 92 -170 69z m59 -48 c29 -29 44 -97 37 -161 -8
-72 -32 -104 -79 -108 -32 -3 -39 1 -57 30 -18 28 -21 46 -18 121 3 83 5 90
31 113 34 29 60 31 86 5z"/>
<path d="M24278 24651 c-103 -33 -152 -125 -123 -233 15 -58 37 -85 90 -109
128 -59 264 22 265 158 0 81 -29 136 -90 168 -34 18 -109 26 -142 16z m70 -65
c76 -69 117 -200 75 -239 -52 -46 -125 -6 -177 97 -37 73 -40 131 -7 157 34
28 66 23 109 -15z"/>
<path d="M24750 24625 c-13 -14 -32 -25 -43 -25 -19 0 -19 -1 -4 -18 26 -28
21 -65 -19 -145 -46 -91 -60 -107 -97 -107 -19 0 -28 -4 -24 -12 2 -7 10 -39
17 -70 15 -64 25 -73 35 -28 4 16 20 41 37 55 27 23 37 25 129 25 93 0 102 -2
125 -25 13 -13 27 -38 30 -55 4 -16 10 -30 14 -30 4 0 16 30 27 68 l20 67 -31
5 c-29 5 -37 16 -111 163 l-81 158 -24 -26z m30 -186 c17 -33 30 -70 28 -82
-3 -20 -9 -22 -63 -22 -75 0 -79 11 -33 100 18 36 34 65 35 65 2 0 17 -27 33
-61z"/>
<path d="M8677 23223 c-100 -160 -167 -286 -162 -302 3 -10 19 -24 36 -31 27
-12 32 -11 58 14 15 14 32 26 38 26 15 0 435 -250 449 -267 9 -10 9 -23 1 -48
-9 -29 -7 -38 8 -55 22 -25 57 -26 77 -2 33 39 178 292 178 311 0 13 -11 26
-29 36 -29 15 -61 12 -61 -6 0 -5 -11 -14 -24 -20 -18 -9 -31 -7 -63 9 -61 32
-376 222 -396 240 -14 13 -16 25 -11 59 5 36 3 47 -12 58 -34 25 -62 18 -87
-22z m48 -42 c-13 -59 10 -79 247 -221 243 -146 266 -154 314 -109 17 16 25
19 23 9 -5 -22 -153 -269 -161 -269 -3 -1 -4 17 -1 39 4 31 1 45 -13 61 -10
12 -116 79 -236 151 -231 138 -266 151 -308 113 -11 -10 -20 -15 -20 -11 0 9
152 266 157 266 3 0 2 -13 -2 -29z"/>
<path d="M8724 22702 c-79 -38 -164 -157 -164 -232 0 -33 -19 -32 -79 4 -81
49 -86 57 -69 102 12 34 11 37 -11 55 -35 28 -58 23 -87 -18 -61 -91 -164
-273 -164 -291 0 -24 30 -52 56 -52 11 0 30 11 43 26 16 18 27 23 43 18 39
-12 435 -253 441 -267 3 -8 3 -32 0 -54 -6 -46 11 -66 54 -61 24 3 39 22 111
143 46 77 102 178 125 225 36 74 41 96 45 170 4 83 3 86 -29 135 -50 73 -111
107 -202 112 -56 3 -81 0 -113 -15z m165 -37 c128 -45 169 -143 120 -287 -17
-51 -212 -398 -224 -398 -2 0 -3 18 -2 39 1 27 -5 47 -18 62 -11 12 -117 79
-236 150 -234 140 -261 149 -307 107 -20 -18 -24 -19 -19 -5 7 19 157 267 162
267 2 0 1 -17 -2 -39 -3 -21 0 -47 5 -58 9 -15 221 -153 237 -153 2 0 1 24 -2
54 -14 135 96 274 218 276 15 0 45 -7 68 -15z"/>
<path d="M8719 22522 c-61 -31 -104 -125 -81 -177 10 -21 200 -145 223 -145
14 0 67 117 74 165 8 54 -19 102 -76 136 -59 36 -98 42 -140 21z m130 -70 c27
-22 37 -38 39 -65 3 -38 -31 -131 -46 -125 -5 1 -43 23 -86 48 -66 39 -76 49
-76 73 0 34 24 82 47 97 28 16 83 4 122 -28z"/>
<path d="M7997 22148 c-10 -8 -22 -39 -28 -72 -9 -48 -35 -100 -140 -275 -79
-133 -145 -230 -169 -252 -63 -57 -57 -73 58 -157 96 -71 137 -86 149 -57 3 9
0 56 -6 106 -11 88 -4 160 18 173 5 3 105 -52 222 -122 l214 -128 0 -54 c0
-48 3 -56 26 -69 14 -8 33 -12 41 -8 20 7 198 302 198 327 0 20 -35 50 -59 50
-8 0 -27 -12 -42 -26 -26 -25 -27 -25 -60 -9 -31 16 -398 233 -409 242 -8 7
30 68 51 81 11 7 44 16 72 19 29 3 60 10 70 15 22 11 22 53 -1 76 -41 40 -173
152 -180 152 -5 0 -16 -6 -25 -12z m105 -110 l70 -62 -66 -16 c-75 -19 -102
-40 -140 -109 l-26 -48 233 -139 c254 -152 289 -164 333 -123 13 12 24 19 24
14 0 -11 -151 -264 -161 -270 -4 -3 -5 13 -2 35 5 34 2 45 -18 66 -21 23 -431
274 -473 290 -10 4 -22 -9 -42 -48 -25 -50 -26 -58 -21 -150 3 -54 4 -98 1
-98 -5 0 -144 100 -144 104 0 2 16 20 35 40 55 59 293 464 307 524 7 29 14 52
16 52 2 0 35 -28 74 -62z"/>
<path d="M25010 21416 c0 -8 -13 -26 -30 -39 -16 -14 -30 -30 -30 -35 0 -13
86 -91 140 -129 96 -65 250 -127 309 -124 18 1 43 -5 55 -13 35 -23 278 -30
556 -16 471 23 537 17 830 -78 499 -162 759 -220 1307 -292 458 -60 696 -125
908 -248 60 -36 121 -88 253 -217 96 -93 207 -210 247 -260 157 -195 274 -276
470 -328 66 -17 110 -21 255 -21 187 0 250 8 450 56 257 62 425 153 745 403
187 146 274 201 348 219 24 6 27 11 27 46 0 22 5 40 10 40 6 0 10 9 10 20 0
16 -7 20 -35 20 -82 0 -209 -71 -409 -229 -368 -289 -554 -379 -901 -437 -63
-11 -156 -17 -250 -17 -173 1 -261 19 -373 78 -90 47 -148 99 -239 213 -102
127 -385 409 -476 473 -213 150 -490 239 -932 299 -391 52 -460 63 -623 96
-242 48 -437 100 -724 193 -331 107 -458 124 -753 101 -208 -16 -571 -17 -655
-1 -88 16 -153 32 -167 43 -6 5 -23 6 -37 2 -19 -4 -31 0 -49 18 -14 14 -45
37 -70 51 -25 15 -70 49 -100 77 -59 53 -67 58 -67 36z"/>
<path d="M23185 21380 c-3 -6 -52 -10 -110 -10 -58 0 -107 -4 -110 -10 -3 -5
-21 -10 -40 -10 -19 0 -37 -4 -40 -10 -3 -5 -21 -10 -40 -10 -19 0 -37 -4 -40
-10 -3 -5 -14 -10 -24 -10 -22 0 -116 -47 -131 -65 -7 -8 -18 -15 -24 -15 -6
0 -47 -35 -89 -78 -69 -70 -86 -95 -147 -218 l-69 -139 27 -22 c15 -12 35 -22
45 -23 25 0 68 -24 91 -49 11 -12 23 -21 27 -21 4 0 35 56 69 124 33 68 67
130 75 136 8 7 15 17 15 23 0 15 51 67 66 67 6 0 17 7 24 15 16 19 68 45 91
45 10 0 21 5 24 10 3 6 17 10 30 10 13 0 27 5 30 10 3 6 30 10 60 10 30 0 57
5 60 10 4 6 53 10 115 10 62 0 111 -4 115 -10 3 -5 19 -10 35 -10 16 0 32 5
35 10 3 6 50 10 104 10 145 0 193 30 193 120 0 56 -15 80 -65 105 -23 12 -71
15 -213 15 -111 0 -185 -4 -189 -10z"/>
<path d="M7414 21205 c-4 -8 -3 -31 0 -50 7 -33 -4 -54 -122 -253 -71 -119
-132 -225 -135 -235 -16 -43 71 -78 93 -37 6 12 21 20 36 20 27 0 402 -217
443 -256 22 -20 23 -26 13 -50 -7 -14 -10 -34 -7 -44 8 -24 52 -42 74 -31 20
11 196 305 237 396 31 70 43 182 25 238 -15 44 -69 101 -123 128 -53 27 -143
36 -193 19 -81 -27 -185 -157 -185 -233 0 -15 -6 -30 -14 -33 -14 -6 -126 61
-126 75 0 12 47 81 79 115 27 30 103 68 158 80 39 9 56 28 51 58 -3 20 -20 29
-128 65 -135 46 -167 51 -176 28z m168 -74 l83 -28 -40 -13 c-65 -21 -128 -56
-156 -87 -30 -32 -99 -145 -99 -161 0 -11 207 -139 232 -145 7 -1 10 19 9 61
-2 51 3 74 24 118 77 156 253 186 363 60 39 -45 49 -94 33 -170 -15 -71 -37
-117 -144 -296 -102 -173 -103 -173 -102 -108 l0 53 -55 36 c-142 94 -416 249
-441 249 -14 0 -39 -10 -55 -22 -24 -20 -27 -20 -21 -4 4 10 64 113 133 227
110 184 125 213 119 240 -6 28 -5 30 13 25 11 -4 58 -19 104 -35z"/>
<path d="M7705 20848 c-47 -37 -81 -138 -57 -174 9 -15 206 -134 221 -134 13
0 55 82 71 138 14 53 1 98 -38 134 -64 61 -147 76 -197 36z m121 -37 c70 -32
91 -84 60 -154 -29 -64 -27 -64 -115 -13 -72 43 -81 51 -81 77 0 55 40 108 80
108 8 1 34 -8 56 -18z"/>
<path d="M20330 20356 c0 -41 -4 -77 -9 -80 -5 -3 -11 -19 -13 -35 -4 -24 1
-32 21 -42 14 -7 34 -19 43 -27 23 -19 430 -222 445 -222 7 0 28 -9 48 -20 20
-11 49 -20 65 -20 16 0 32 -4 35 -10 4 -6 60 -10 135 -10 75 0 131 4 135 10 3
6 14 10 24 10 19 0 143 60 169 82 9 8 42 27 73 41 31 15 63 35 72 45 30 33 3
68 -85 113 -43 21 -84 39 -93 39 -16 0 -49 -17 -77 -39 -9 -7 -47 -28 -84 -47
-56 -28 -79 -34 -130 -34 -35 0 -66 5 -69 10 -3 6 -21 10 -40 10 -19 0 -37 5
-40 10 -3 6 -14 10 -23 10 -18 0 -461 218 -490 242 -32 25 -62 38 -87 38 -24
0 -25 -2 -25 -74z"/>
<path d="M6940 20400 c-16 -16 -18 -25 -10 -45 6 -15 10 -30 10 -34 0 -5 -32
-62 -72 -127 -130 -216 -178 -304 -178 -323 0 -22 35 -51 61 -51 9 0 24 11 33
25 9 14 24 25 34 25 17 0 411 -228 445 -259 18 -15 18 -35 3 -73 -10 -22 26
-58 58 -58 22 0 45 33 178 258 85 141 157 265 161 275 10 26 -136 197 -168
197 -37 0 -46 -27 -28 -90 20 -77 12 -153 -25 -226 -50 -96 -41 -92 -126 -43
-77 45 -87 60 -63 93 11 15 17 16 35 7 55 -29 112 -1 112 56 0 37 -10 45 -130
117 -107 62 -149 71 -174 34 -24 -33 -20 -58 14 -93 28 -29 30 -34 19 -58 -7
-15 -16 -27 -21 -27 -11 0 -148 80 -148 87 0 12 36 73 65 109 33 40 71 61 155
86 40 12 45 16 45 43 0 29 -3 31 -105 66 -152 52 -156 53 -180 29z m135 -61
c39 -12 74 -24 79 -27 5 -3 -20 -15 -55 -28 -45 -16 -74 -35 -99 -62 -36 -40
-109 -167 -100 -175 21 -17 214 -127 223 -127 13 0 77 104 77 125 0 7 -16 23
-35 35 -35 22 -44 43 -25 55 14 9 220 -114 220 -130 0 -25 -19 -26 -59 -5 -22
11 -44 20 -49 20 -9 0 -87 -129 -81 -135 13 -12 230 -135 239 -135 6 0 32 44
58 97 46 96 47 99 47 195 0 54 1 98 2 98 0 0 24 -27 52 -59 l51 -59 -145 -244
c-135 -226 -181 -291 -155 -222 14 37 -1 73 -43 101 -17 12 -119 74 -226 137
-220 131 -241 138 -288 93 -13 -11 -23 -17 -23 -12 0 5 57 105 126 222 109
185 125 216 119 243 -5 22 -3 29 7 26 7 -3 45 -14 83 -27z"/>
<path d="M22885 20380 c-3 -5 -14 -10 -24 -10 -23 0 -75 -26 -91 -45 -7 -8
-18 -15 -25 -15 -6 0 -20 -9 -30 -20 -10 -11 -23 -20 -30 -20 -6 0 -29 -18
-50 -40 -21 -22 -44 -40 -50 -40 -13 0 -195 -182 -195 -196 0 -6 -13 -23 -30
-39 -16 -16 -30 -34 -30 -40 0 -6 -12 -22 -26 -36 -14 -13 -34 -42 -44 -65
-11 -22 -26 -47 -35 -54 -8 -7 -15 -18 -15 -25 0 -6 -9 -20 -20 -30 -11 -10
-20 -24 -20 -30 0 -7 -7 -18 -15 -25 -18 -15 -65 -109 -65 -131 0 -10 -4 -21
-10 -24 -6 -4 -10 -57 -10 -125 0 -68 4 -121 10 -125 6 -3 10 -26 10 -50 0
-24 5 -47 10 -50 6 -3 10 -17 10 -30 0 -13 5 -27 10 -30 6 -3 10 -17 10 -30 0
-13 5 -27 10 -30 6 -3 10 -17 10 -30 0 -13 5 -27 10 -30 6 -3 10 -17 10 -30 0
-13 5 -27 10 -30 6 -3 10 -17 10 -30 0 -13 5 -27 10 -30 6 -3 10 -26 10 -50 0
-24 5 -47 10 -50 6 -4 10 -73 10 -175 0 -102 -4 -171 -10 -175 -5 -3 -10 -21
-10 -40 0 -19 -4 -37 -10 -40 -5 -3 -10 -14 -10 -25 0 -10 -13 -44 -30 -75
-16 -31 -30 -59 -30 -61 0 -2 15 -4 33 -4 21 0 41 -8 52 -20 15 -17 19 -17 32
-5 9 10 35 15 73 15 56 0 59 2 74 32 9 17 16 39 16 49 0 10 5 21 10 24 6 3 10
21 10 40 0 19 5 37 10 40 6 3 10 30 10 60 0 30 5 57 10 60 6 4 10 57 10 125 0
68 -4 121 -10 125 -5 3 -10 30 -10 60 0 30 -4 57 -10 60 -5 3 -10 21 -10 40 0
19 -4 37 -10 40 -5 3 -10 17 -10 30 0 13 -4 27 -10 30 -5 3 -10 17 -10 30 0
13 -4 27 -10 30 -5 3 -10 17 -10 30 0 13 -4 27 -10 30 -5 3 -10 17 -10 30 0
13 -4 27 -10 30 -5 3 -10 21 -10 40 0 19 -4 37 -10 40 -5 3 -10 26 -10 50 0
24 -4 47 -10 50 -5 3 -10 24 -10 45 0 21 5 42 10 45 6 3 10 19 10 34 0 31 23
83 45 101 8 7 15 18 15 25 0 6 9 20 20 30 11 10 20 23 20 30 0 7 9 20 20 30
11 10 20 23 20 30 0 7 9 20 20 30 11 10 20 23 20 30 0 7 9 20 20 30 11 10 20
23 20 29 0 14 252 266 266 266 6 0 19 9 29 20 10 11 24 20 30 20 7 0 18 7 25
15 18 22 70 45 102 45 33 0 33 0 8 45 -11 20 -20 44 -20 55 0 10 -4 22 -10 25
-5 3 -10 21 -10 39 0 17 -5 37 -12 44 -15 15 -45 16 -53 2z"/>
<path d="M16537 19956 c-23 -51 -21 -61 8 -74 22 -10 27 -8 55 26 16 20 30 40
30 44 0 17 -17 7 -38 -22 -13 -16 -29 -30 -37 -30 -17 0 -20 31 -4 47 6 6 9
19 7 29 -3 14 -9 9 -21 -20z"/>
<path d="M16290 19848 c0 -24 5 -50 10 -58 7 -11 10 0 10 37 0 28 -4 55 -10
58 -6 4 -10 -11 -10 -37z"/>
<path d="M16050 19733 c1 -12 50 -46 50 -35 0 6 -11 17 -25 26 -14 9 -25 13
-25 9z"/>
<path d="M6618 19596 c-46 -13 -103 -49 -145 -93 -53 -56 -263 -400 -263 -431
0 -22 15 -36 47 -46 17 -5 28 -1 44 18 13 15 31 26 42 26 10 0 118 -59 239
-131 l220 -131 -7 -47 c-5 -39 -3 -50 14 -65 41 -37 62 -18 160 147 50 84 91
158 91 165 0 16 -41 52 -60 52 -9 0 -27 -11 -40 -26 -30 -31 -50 -27 -127 22
l-54 34 49 48 c65 64 94 128 95 212 0 109 -44 179 -142 229 -51 26 -108 32
-163 17z m140 -55 c46 -24 97 -76 111 -114 41 -108 -39 -269 -153 -307 -20 -6
-36 -15 -36 -18 0 -4 48 -36 106 -71 120 -72 158 -80 199 -41 14 13 25 20 25
16 0 -10 -160 -276 -166 -276 -3 0 -2 16 2 35 4 24 1 42 -10 59 -18 28 -442
284 -484 292 -21 4 -36 -1 -60 -21 -18 -15 -32 -24 -32 -20 0 18 208 352 246
394 77 85 173 113 252 72z"/>
<path d="M6529 19397 c-31 -21 -109 -120 -109 -138 0 -4 49 -37 110 -74 108
-65 109 -66 143 -51 40 16 90 74 98 113 23 116 -141 218 -242 150z m144 -47
c58 -36 69 -69 40 -120 -11 -19 -31 -41 -44 -49 -22 -12 -30 -10 -102 34 -43
26 -77 53 -77 62 0 25 84 103 112 103 13 0 45 -13 71 -30z"/>
<path d="M6078 18863 c-24 -27 -168 -275 -168 -288 0 -35 72 -59 98 -33 9 9
15 4 26 -23 22 -53 40 -119 34 -124 -9 -9 -127 -27 -142 -22 -8 3 -12 15 -9
29 6 30 -27 61 -59 56 -15 -2 -36 -23 -63 -65 -73 -115 -155 -260 -155 -276 0
-20 53 -49 74 -41 8 3 22 16 30 29 10 15 32 27 63 34 95 21 335 53 343 44 13
-15 100 -278 100 -305 0 -14 -7 -42 -15 -62 -14 -34 -14 -37 6 -57 13 -13 30
-19 47 -17 22 3 39 25 109 143 45 77 83 147 83 156 0 35 -68 66 -85 39 -12
-20 -23 -9 -44 46 -36 94 -36 94 83 110 46 6 49 6 44 -14 -9 -33 19 -64 55
-60 28 3 38 16 124 158 51 85 93 165 93 177 0 15 -10 28 -29 38 -28 14 -31 14
-70 -19 -23 -19 -56 -39 -74 -45 -56 -17 -319 -53 -327 -44 -18 19 -100 272
-100 308 0 21 6 54 12 73 12 31 11 35 -11 53 -29 24 -53 24 -73 2z m32 -67
c-5 -15 -10 -42 -10 -59 0 -33 103 -344 120 -361 11 -11 351 40 400 60 19 8
45 25 57 36 13 12 23 19 23 15 0 -3 -37 -68 -82 -144 -67 -112 -83 -133 -86
-113 -6 38 -21 50 -64 50 -38 0 -171 -17 -195 -25 -12 -4 24 -125 58 -198 14
-32 53 -45 81 -28 10 6 18 9 18 5 0 -13 -143 -244 -152 -244 -5 0 -4 10 3 21
23 44 12 116 -42 267 -28 81 -55 151 -59 156 -7 7 -223 -21 -389 -51 -18 -3
-49 -20 -69 -37 -20 -17 -33 -26 -30 -21 57 102 162 277 169 281 6 3 7 -4 4
-18 -9 -37 15 -60 63 -60 75 1 202 24 202 36 0 21 -59 188 -75 213 -16 24 -58
32 -70 13 -3 -5 -10 -10 -15 -10 -8 0 50 103 127 228 19 30 27 23 13 -12z"/>
<path d="M8565 18692 c-16 -11 -57 -60 -89 -110 -33 -51 -63 -92 -68 -92 -4 0
-8 22 -8 49 0 45 3 51 28 63 18 9 28 22 30 41 6 52 -8 57 -148 57 -140 0 -154
-5 -148 -57 2 -19 12 -32 31 -41 l27 -13 0 -162 0 -163 -30 -11 c-22 -8 -30
-18 -30 -36 0 -57 1 -57 151 -57 135 0 140 1 148 22 12 33 2 57 -30 74 -24 12
-29 21 -29 49 0 19 3 35 8 35 4 -1 30 -32 57 -71 62 -86 114 -121 188 -123 40
-1 60 4 84 22 l32 23 32 -23 c38 -28 124 -30 164 -4 25 16 28 16 71 -4 39 -20
50 -21 87 -11 25 7 152 12 317 14 l275 2 3 38 c3 35 0 39 -27 50 l-31 11 0
108 c0 107 0 107 28 120 18 9 28 22 30 41 7 56 2 57 -269 57 -247 0 -249 0
-263 -23 -21 -31 -10 -64 25 -76 l29 -10 0 -105 c0 -105 -5 -121 -31 -90 -7 9
-22 14 -36 11 -23 -4 -23 -4 -23 100 0 119 -12 153 -63 180 -41 21 -168 29
-226 13 -92 -25 -132 -113 -78 -172 l23 -25 -28 -34 c-53 -65 -58 -69 -78 -69
-12 0 -44 29 -85 79 -36 44 -70 81 -75 83 -5 2 0 17 11 35 19 31 23 32 65 26
53 -7 89 9 110 49 22 43 17 82 -15 117 -24 25 -37 31 -73 31 -24 0 -56 -8 -73
-18z m113 -44 c17 -17 15 -54 -4 -73 -12 -12 -31 -15 -72 -13 l-56 3 -37 -55
c-21 -30 -38 -59 -38 -65 -1 -5 12 -17 28 -26 15 -9 54 -48 85 -87 61 -77 81
-92 120 -92 35 0 33 -16 -4 -35 -58 -30 -116 -9 -170 63 -65 87 -125 142 -154
142 -25 0 -26 -2 -26 -64 0 -82 14 -122 48 -135 21 -7 0 -9 -83 -10 -76 0
-103 3 -87 9 35 15 42 50 42 226 0 162 0 165 -25 189 l-24 25 97 0 c84 0 94
-2 72 -13 -13 -7 -27 -23 -31 -37 -10 -34 -11 -168 -1 -173 16 -11 65 7 92 34
16 16 43 54 60 83 47 83 82 116 122 116 19 0 39 -5 46 -12z m399 -121 c15 -14
19 -41 23 -141 6 -137 15 -160 59 -149 26 6 26 6 7 -15 -40 -46 -136 -33 -136
18 0 26 -1 26 -56 -12 -62 -44 -124 -46 -160 -5 -53 61 -20 111 113 173 l94
44 -3 42 c-3 36 -7 43 -31 49 -45 12 -73 -4 -81 -45 -8 -44 -38 -63 -72 -47
-38 17 -33 66 9 92 27 17 46 20 124 17 72 -2 96 -7 110 -21z m575 3 c-32 -13
-42 -49 -42 -149 0 -126 7 -150 44 -167 28 -12 22 -13 -79 -13 -83 0 -104 3
-85 10 13 6 28 15 32 22 4 7 8 74 8 150 l0 137 -80 0 -80 0 0 -137 c0 -76 4
-143 8 -150 4 -7 19 -16 32 -22 19 -7 -3 -10 -85 -10 -85 1 -104 3 -83 11 36
13 48 57 47 168 -1 105 -8 131 -39 147 -21 11 14 13 200 12 146 0 217 -3 202
-9z m-682 -49 c0 -6 -4 -13 -10 -16 -5 -3 -10 1 -10 9 0 9 5 16 10 16 6 0 10
-4 10 -9z m518 -113 l-3 -103 -35 0 -35 0 -3 103 -3 102 41 0 41 0 -3 -102z"/>
<path d="M8950 18381 c-72 -40 -92 -72 -72 -116 15 -32 60 -34 108 -4 33 20
34 22 34 90 0 38 -1 69 -2 68 -2 -1 -32 -17 -68 -38z m15 -71 c-10 -11 -25
-20 -33 -20 -12 0 -12 4 3 20 10 11 25 20 33 20 12 0 12 -4 -3 -20z"/>
<path d="M9826 18585 c-169 -60 -186 -328 -26 -410 75 -39 185 -37 241 4 35
26 35 26 42 1 5 -20 14 -20 379 -20 233 0 387 4 411 11 22 6 55 25 74 43 31
28 37 40 41 87 9 112 -53 174 -164 167 -38 -2 -54 1 -54 10 0 6 8 12 18 12 25
0 42 20 42 50 0 14 -5 31 -12 38 -15 15 -241 17 -269 2 -37 -20 -19 -90 23
-90 16 0 18 -11 18 -115 l0 -115 -28 0 c-16 0 -36 8 -44 18 -9 9 -50 86 -92
170 -65 130 -79 152 -99 152 -14 0 -32 -12 -45 -30 -13 -16 -31 -30 -40 -30
-39 0 -57 -55 -27 -80 22 -19 18 -38 -28 -119 -52 -91 -66 -99 -64 -34 2 43 0
48 -22 51 -15 3 -34 -6 -55 -26 -55 -53 -111 -68 -136 -37 -10 12 -8 16 11 24
106 41 166 66 177 74 15 12 16 56 1 94 -35 92 -162 138 -273 98z m194 -70 c16
-17 32 -43 35 -60 l6 -30 -115 -45 c-69 -27 -116 -51 -116 -58 0 -25 65 -80
103 -87 29 -6 49 -2 88 18 l51 25 -33 -34 c-41 -42 -88 -58 -147 -50 -95 13
-152 78 -152 174 0 122 66 185 188 179 54 -3 67 -7 92 -32z m493 -300 c30 -13
25 -14 -78 -14 -71 0 -102 3 -89 9 12 4 24 15 27 24 6 16 -60 176 -72 176 -14
0 -84 -158 -78 -174 4 -9 17 -21 29 -26 17 -6 1 -9 -57 -8 -44 0 -71 3 -60 5
34 9 56 35 102 127 43 85 47 105 28 149 -5 12 -3 17 8 17 9 0 24 10 33 23 18
23 18 22 96 -136 68 -136 83 -160 111 -172z m247 318 c-29 -10 -40 -37 -40
-96 l0 -59 26 17 c62 40 125 40 169 -1 19 -18 25 -33 25 -66 0 -93 -49 -119
-235 -124 -71 -2 -123 -1 -115 2 46 20 50 32 50 164 0 127 -6 151 -40 163 -8
3 28 5 80 5 52 0 88 -2 80 -5z m-450 -242 c0 -5 3 -16 6 -25 4 -12 0 -16 -15
-16 -22 0 -25 8 -15 34 7 17 24 22 24 7z"/>
<path d="M9867 18510 c-18 -14 -30 -38 -38 -75 -7 -30 -10 -58 -7 -61 11 -10
108 38 128 64 51 64 -17 124 -83 72z m43 -45 c-7 -8 -17 -15 -22 -15 -6 0 -5
7 2 15 7 8 17 15 22 15 6 0 5 -7 -2 -15z"/>
<path d="M10743 18380 c-21 -9 -23 -16 -23 -85 0 -84 1 -84 72 -64 26 7 43 19
54 40 17 33 12 80 -10 98 -19 16 -68 22 -93 11z m63 -55 c6 -16 -12 -45 -27
-45 -5 0 -9 14 -9 30 0 32 26 43 36 15z"/>
<path d="M23570 18250 c-26 -26 -25 -43 4 -77 21 -24 32 -28 92 -31 56 -2 75
1 102 17 26 17 32 27 32 56 0 28 -5 37 -22 44 -45 16 -68 -5 -68 -62 0 -37 -1
-38 -32 -35 -30 3 -33 5 -30 35 2 22 -3 38 -17 52 -26 26 -36 26 -61 1z"/>
<path d="M21233 18206 c-75 -24 -131 -84 -153 -164 l-11 -42 -49 0 -50 0 0 78
c0 82 10 107 45 115 11 3 -32 5 -95 5 -85 1 -109 -2 -90 -9 13 -6 28 -15 32
-22 4 -7 8 -91 8 -188 0 -182 -2 -194 -45 -217 -15 -9 6 -11 95 -12 l115 0
-32 20 -33 20 0 85 0 85 49 0 50 0 16 -57 c13 -43 28 -69 61 -100 48 -47 93
-63 174 -63 174 1 282 182 206 345 -29 63 -72 100 -138 120 -62 18 -99 18
-155 1z m158 -57 c36 -39 49 -85 49 -179 -1 -116 -40 -185 -112 -196 -79 -13
-135 55 -145 175 -12 139 41 231 134 231 37 0 50 -5 74 -31z"/>
<path d="M24465 18209 c-27 -4 -115 -8 -195 -9 -80 -1 -134 -5 -120 -9 42 -12
50 -43 50 -208 0 -83 -4 -163 -10 -177 -5 -14 -22 -32 -37 -40 -26 -14 -21
-15 87 -15 89 0 110 2 95 11 -43 23 -45 34 -45 225 l0 183 66 0 c78 0 101 -11
120 -56 8 -19 19 -32 23 -29 9 5 27 124 20 129 -2 1 -26 -1 -54 -5z"/>
<path d="M21656 18086 c-32 -31 -32 -41 -1 -71 28 -29 43 -31 71 -10 29 22 41
18 69 -22 l25 -38 -39 -17 c-28 -12 -51 -33 -78 -75 -32 -47 -44 -58 -66 -58
-32 1 -34 -8 -7 -35 20 -20 63 -26 95 -14 9 4 29 33 46 66 35 69 61 98 89 98
17 0 20 -7 20 -44 0 -55 -15 -96 -34 -96 -8 0 -18 -4 -21 -10 -4 -6 32 -10
102 -10 l108 0 -32 20 c-32 19 -33 22 -33 84 0 60 1 64 20 59 21 -6 70 -62 70
-80 0 -5 14 -29 30 -51 26 -37 35 -42 69 -42 36 0 55 12 75 47 5 9 -1 11 -23
7 -27 -6 -32 -2 -65 50 -31 48 -74 87 -110 99 -12 4 32 77 45 77 6 0 24 -7 41
-16 55 -29 107 21 79 75 -28 52 -104 29 -151 -47 -68 -110 -80 -116 -80 -39 0
60 6 72 40 86 19 7 -3 10 -85 10 -73 0 -103 -3 -88 -9 30 -12 43 -41 43 -95 0
-63 -23 -58 -66 15 -60 102 -114 131 -158 86z"/>
<path d="M24718 18100 c-85 -25 -131 -89 -131 -179 0 -107 61 -173 167 -179
118 -7 195 63 196 176 0 66 -18 110 -59 145 -49 41 -114 55 -173 37z m70 -64
c74 -67 115 -194 75 -238 -23 -26 -75 -23 -111 6 -41 35 -94 140 -96 188 0 31
5 44 23 59 34 28 66 23 109 -15z"/>
<path d="M25220 18103 c-8 -3 -27 -17 -42 -31 l-28 -26 0 27 c0 33 -8 33 -89
6 l-64 -22 30 -12 c17 -7 33 -23 36 -36 11 -38 8 -335 -3 -364 -5 -14 -20 -29
-32 -34 -42 -15 -2 -19 100 -8 104 10 126 20 72 31 -36 7 -50 36 -50 108 l0
50 31 -26 c39 -33 108 -36 157 -6 69 42 95 177 51 268 -30 61 -110 97 -169 75z
m57 -57 c26 -23 28 -30 31 -113 3 -74 0 -93 -17 -120 -17 -27 -27 -33 -54 -33
-20 0 -41 7 -50 18 -21 23 -38 111 -31 155 11 67 15 77 36 97 29 26 51 25 85
-4z"/>
<path d="M25593 18099 c-68 -20 -123 -102 -123 -184 0 -39 31 -104 61 -132 82
-75 235 -50 286 47 39 73 23 182 -35 233 -45 40 -123 55 -189 36z m81 -60 c42
-36 96 -140 96 -183 0 -78 -70 -102 -134 -45 -41 35 -96 140 -96 181 0 36 40
78 74 78 14 0 41 -14 60 -31z"/>
<path d="M7772 18088 c-7 -7 -12 -24 -12 -38 0 -30 17 -50 42 -50 17 0 18 -13
18 -170 l0 -170 -25 -6 c-28 -7 -44 -48 -28 -73 8 -13 34 -17 144 -19 117 -2
135 0 146 15 21 28 15 53 -17 71 -27 15 -30 22 -30 65 l0 47 70 0 70 0 0 -47
c0 -43 -3 -50 -30 -65 -32 -18 -40 -54 -18 -76 17 -17 269 -17 286 0 22 22 14
58 -18 76 l-30 17 0 168 c0 159 1 167 20 167 36 0 52 56 24 84 -12 13 -40 16
-139 16 -99 0 -127 -3 -139 -16 -31 -30 -14 -84 26 -84 15 0 18 -9 18 -50 l0
-50 -70 0 -70 0 0 50 c0 43 3 50 20 50 36 0 52 56 24 84 -12 13 -40 16 -143
16 -85 0 -131 -4 -139 -12z m218 -51 c-23 -12 -25 -18 -28 -100 l-3 -87 121 0
120 0 0 78 c0 78 -9 104 -40 115 -8 3 30 5 85 5 55 0 93 -2 85 -5 -36 -13 -40
-34 -40 -218 0 -192 2 -200 50 -218 8 -3 -34 -5 -95 -5 -60 0 -103 2 -95 5 42
16 50 34 50 120 l0 83 -120 0 -120 0 0 -82 c0 -91 4 -102 40 -117 19 -7 -3
-10 -85 -10 -60 1 -103 3 -95 6 48 18 50 26 50 218 0 184 -4 205 -40 218 -8 3
30 6 85 6 87 1 97 -1 75 -12z"/>
<path d="M23723 17991 c-67 -61 -124 -111 -127 -111 -9 0 -7 163 2 177 4 7 19
16 32 22 19 7 -3 10 -85 10 -82 0 -104 -3 -85 -10 13 -6 28 -15 32 -22 4 -7 8
-81 8 -165 l0 -154 49 44 c27 24 85 76 130 117 l81 73 0 -91 0 -91 -32 -20
-33 -20 108 0 c70 0 106 4 102 10 -3 6 -12 10 -20 10 -25 0 -30 24 -35 178
l-5 154 -122 -111z"/>
<path d="M26082 18080 c-6 -11 -23 -22 -37 -26 -23 -6 -24 -8 -10 -27 23 -33
18 -55 -33 -152 -43 -83 -50 -90 -79 -93 -38 -4 -38 -4 -16 -82 15 -56 33 -80
33 -44 0 26 31 71 57 83 32 14 185 14 217 0 23 -11 56 -62 56 -88 0 -31 17 -3
36 59 l22 70 -29 0 c-37 0 -52 21 -128 183 -35 75 -67 137 -70 137 -3 0 -12
-9 -19 -20z m28 -191 c17 -33 30 -70 28 -82 -3 -20 -9 -22 -63 -22 -54 0 -60
2 -63 22 -3 19 52 143 63 143 3 0 19 -27 35 -61z"/>
<path d="M22300 18079 c13 -6 28 -15 32 -22 4 -7 8 -66 8 -133 0 -124 -4 -140
-45 -162 -15 -9 5 -11 90 -11 85 0 105 2 90 11 -34 18 -45 40 -45 90 l0 48 85
0 85 0 0 -55 c0 -52 -2 -57 -32 -75 l-33 -20 108 0 c70 0 106 4 102 10 -3 6
-13 10 -20 10 -26 0 -35 38 -35 150 0 117 8 146 43 160 15 6 -15 9 -88 9 -82
0 -104 -3 -85 -10 34 -14 40 -26 40 -86 l0 -53 -85 0 -85 0 0 53 c0 60 6 72
40 86 19 7 -3 10 -85 10 -82 0 -104 -3 -85 -10z"/>
<path d="M22817 18080 c35 -14 43 -43 43 -159 0 -126 -3 -138 -39 -154 -22
-10 -8 -12 92 -15 175 -4 241 22 254 100 16 102 -82 160 -180 108 l-37 -20 0
52 c0 61 6 73 40 87 19 7 -3 10 -85 10 -73 0 -103 -3 -88 -9z m230 -158 c6 -4
16 -20 22 -35 20 -53 -23 -107 -86 -107 l-33 0 0 68 c0 38 3 72 7 75 9 9 75 9
90 -1z"/>
<path d="M23195 18083 c42 -11 45 -20 45 -159 l0 -134 -32 -20 -33 -20 115 1
c92 1 110 3 88 12 -38 15 -48 46 -48 157 0 111 9 146 42 160 16 6 -11 9 -87 8
-60 0 -101 -3 -90 -5z"/>
<path d="M22250 18021 c0 -27 -56 -71 -91 -71 l-29 0 28 -39 27 -39 53 51 c42
41 52 58 52 84 0 26 -4 33 -20 33 -13 0 -20 -7 -20 -19z"/>
<path d="M9031 17971 c-13 -17 -32 -31 -48 -33 -40 -5 -52 -32 -30 -69 23 -42
22 -48 -22 -129 -28 -52 -48 -76 -72 -88 -37 -18 -49 -53 -29 -78 10 -11 55
-14 252 -14 238 0 239 0 247 23 5 12 7 25 4 30 -2 4 16 -7 41 -23 83 -56 202
-59 271 -6 l35 27 10 -25 10 -26 172 0 c190 0 239 12 273 64 l17 25 25 -30
c58 -69 190 -95 276 -54 165 78 169 325 7 408 -48 25 -63 28 -121 24 -83 -5
-139 -35 -179 -96 -26 -39 -30 -41 -30 -20 0 33 -24 65 -63 86 -26 14 -66 18
-199 21 l-166 4 -16 -25 c-10 -14 -14 -32 -10 -43 5 -12 -2 -8 -16 10 -47 57
-143 80 -233 55 -50 -14 -106 -64 -130 -118 -21 -49 -25 -139 -8 -185 14 -35
12 -38 -18 -23 -16 8 -51 66 -105 172 -90 177 -106 192 -145 136z m566 -41
c34 -20 68 -73 60 -94 -3 -6 -55 -31 -116 -56 -61 -25 -111 -50 -111 -57 0 -8
15 -30 34 -50 30 -33 39 -37 84 -37 30 0 60 7 75 17 40 26 44 20 12 -13 -76
-79 -222 -58 -279 40 -46 79 -15 204 63 248 48 29 134 29 178 2z m871 -9 c64
-45 91 -147 58 -225 -32 -76 -133 -122 -216 -97 -147 44 -176 247 -47 326 36
22 52 25 107 23 49 -3 74 -9 98 -27z m-1328 -118 c70 -148 98 -189 133 -196
12 -2 -30 -5 -93 -5 -88 0 -109 2 -87 10 16 6 27 17 27 28 0 21 -65 170 -74
170 -11 0 -76 -140 -76 -163 0 -15 9 -28 23 -35 18 -9 8 -11 -53 -11 -73 0
-74 0 -43 14 26 11 41 32 78 104 45 90 55 137 34 158 -8 8 -3 16 20 27 17 9
31 21 31 26 0 29 22 -5 80 -127z m910 119 c28 -13 36 -24 38 -49 3 -28 -2 -36
-30 -53 -18 -11 -41 -20 -50 -20 -10 0 -18 -4 -18 -10 0 -5 12 -10 28 -10 38
0 90 -35 98 -65 4 -15 1 -38 -5 -51 -19 -42 -66 -54 -233 -59 -116 -4 -146 -3
-126 6 36 14 48 59 47 169 -1 105 -8 131 -39 147 -21 11 -3 13 115 13 113 0
147 -3 175 -18z m-326 -32 c26 -9 26 -11 26 -114 0 -98 -2 -106 -22 -117 -19
-10 -20 -9 -13 7 15 38 17 64 5 79 -18 22 -57 18 -74 -6 -36 -52 -103 -73
-140 -46 -16 11 -6 17 81 51 126 50 129 53 116 111 -6 25 -9 45 -7 45 1 0 14
-4 28 -10z m411 -80 c-4 -12 -9 -19 -12 -17 -3 3 -2 15 2 27 4 12 9 19 12 17
3 -3 2 -15 -2 -27z m-1075 -141 c0 -10 -6 -19 -13 -19 -22 0 -27 11 -16 32 12
22 29 15 29 -13z"/>
<path d="M9471 17914 c-13 -9 -29 -32 -37 -50 -15 -36 -19 -94 -6 -94 24 1
119 60 131 82 13 23 13 28 -2 52 -20 30 -52 34 -86 10z m49 -39 c0 -2 -10 -10
-22 -16 -21 -11 -22 -11 -9 4 13 16 31 23 31 12z"/>
<path d="M10260 17893 c-17 -22 -20 -36 -15 -67 13 -88 106 -206 160 -206 37
0 75 42 75 83 0 46 -53 149 -96 186 -46 41 -94 42 -124 4z m113 -66 c55 -73
73 -141 41 -154 -21 -8 -69 40 -99 101 -28 55 -31 76 -13 94 15 15 41 1 71
-41z"/>
<path d="M9880 17854 l0 -67 42 7 c107 17 111 107 6 120 l-48 6 0 -66z m67 0
c-3 -3 -12 -4 -19 -1 -8 3 -5 6 6 6 11 1 17 -2 13 -5z"/>
<path d="M9880 17700 l0 -72 56 4 c64 5 87 24 87 68 0 44 -23 63 -87 68 l-56
4 0 -72z m89 11 c19 -12 4 -31 -25 -31 -17 0 -24 5 -24 20 0 21 24 27 49 11z"/>
<path d="M10727 17990 c-161 -5 -176 -9 -177 -48 0 -25 21 -52 40 -52 19 0 20
-7 20 -112 l0 -113 -30 -17 c-32 -18 -37 -37 -20 -69 10 -17 22 -19 144 -19
145 0 146 1 146 57 0 18 -8 28 -30 36 l-30 11 0 104 c0 115 9 126 46 56 15
-30 27 -40 50 -42 33 -4 44 -17 44 -51 0 -14 10 -45 21 -69 57 -116 227 -154
341 -75 100 68 119 251 35 342 -33 36 -115 71 -167 71 -69 0 -118 -18 -164
-60 l-42 -39 4 35 c5 42 -12 65 -47 62 -14 -1 -97 -4 -184 -8z m178 -92 c-7
-52 -25 -91 -25 -54 0 10 -13 31 -29 47 -23 23 -39 29 -70 29 l-41 0 0 -124
c0 -136 8 -172 42 -186 16 -6 -9 -9 -82 -9 -82 1 -99 3 -77 11 35 13 38 29 35
178 -3 121 -4 125 -28 137 -21 11 -5 13 115 15 77 2 146 5 153 6 11 2 12 -9 7
-50z m322 41 c94 -35 135 -165 81 -260 -80 -142 -306 -101 -333 60 -13 77 33
168 100 197 37 16 114 18 152 3z"/>
<path d="M11057 17902 c-41 -46 -1 -179 75 -248 44 -39 74 -43 112 -13 35 27
35 83 0 153 -39 78 -90 126 -134 126 -23 0 -43 -7 -53 -18z m95 -59 c83 -89
90 -227 8 -148 -33 31 -84 140 -76 161 9 22 40 16 68 -13z"/>
<path d="M8362 17978 c-7 -7 -12 -27 -12 -45 0 -28 4 -34 31 -41 28 -7 41 -25
105 -140 66 -119 72 -135 62 -158 -8 -17 -16 -23 -27 -18 -9 4 -33 9 -53 12
-32 3 -42 -1 -68 -26 -36 -37 -41 -91 -11 -121 22 -22 80 -41 124 -41 l27 0 0
-170 0 -170 -25 -6 c-28 -7 -44 -48 -28 -73 9 -13 33 -16 149 -16 l139 0 10
29 c8 24 6 31 -13 46 -12 10 -27 20 -33 22 -6 2 -9 21 -7 42 l3 39 34 -49 c74
-106 115 -138 191 -148 61 -9 108 16 138 74 l22 44 0 -76 c0 -70 -2 -77 -25
-92 -17 -11 -25 -26 -25 -45 0 -50 16 -55 152 -42 67 6 128 16 135 22 16 14
17 61 1 77 -7 7 -22 12 -35 12 -13 0 -23 6 -23 14 0 10 15 14 58 13 86 0 144
37 177 115 17 42 20 163 5 203 -9 24 -8 26 12 23 18 -2 40 -34 96 -137 66
-119 73 -136 63 -158 -9 -19 -16 -23 -29 -17 -9 4 -33 9 -52 11 -97 12 -135
-122 -48 -168 34 -18 103 -13 142 10 46 29 70 68 166 274 85 183 95 195 147
185 16 -3 18 -16 21 -113 l3 -110 -31 -12 c-22 -8 -30 -18 -30 -36 0 -56 1
-57 146 -57 122 0 134 2 144 19 17 32 12 51 -20 69 l-30 17 0 103 c0 114 10
128 40 57 18 -41 22 -45 55 -45 31 0 37 4 47 30 l10 30 20 -26 20 -25 -27 -29
c-34 -35 -43 -93 -21 -143 12 -29 26 -43 62 -58 50 -23 91 -20 152 8 30 14 34
14 53 -3 57 -51 208 8 209 82 0 28 -34 58 -60 51 -19 -5 -20 -1 -20 92 0 120
-11 154 -58 183 -32 20 -50 23 -137 23 -84 0 -106 -3 -136 -21 l-35 -21 -10
21 c-9 20 -14 20 -289 17 -154 -1 -285 -7 -291 -12 -6 -5 -15 -4 -21 2 -6 6
-63 8 -144 7 -126 -3 -135 -4 -143 -24 l-10 -22 -39 26 c-36 24 -50 27 -140
28 -81 2 -112 -2 -166 -21 -101 -35 -101 -35 -101 -64 0 -33 10 -48 35 -52 18
-4 20 -13 23 -97 l3 -93 -21 21 c-14 14 -27 19 -38 14 -50 -20 -56 -17 -130
71 l-73 86 17 28 c16 28 20 29 68 24 47 -5 54 -3 84 25 70 65 25 172 -72 172
-58 0 -96 -32 -166 -140 -28 -44 -53 -80 -55 -80 -3 0 -5 25 -5 55 0 48 2 55
20 55 20 0 40 27 40 54 0 31 -30 46 -95 46 l-64 0 86 183 c47 100 90 188 96
195 5 6 20 12 33 12 41 0 56 69 20 92 -17 12 -194 9 -201 -2 -4 -7 -12 -7 -25
0 -27 15 -263 13 -278 -2z m217 -57 l-24 -19 34 -69 c18 -38 41 -80 51 -93
l18 -24 35 70 c49 99 52 109 28 133 l-21 21 68 0 c66 -1 66 -1 35 -15 -23 -10
-39 -29 -61 -77 -17 -34 -58 -121 -92 -193 -64 -137 -104 -190 -152 -200 -38
-9 -80 18 -76 47 5 34 32 44 73 30 19 -8 43 -11 53 -8 21 7 65 80 60 99 -2 7
-37 75 -78 151 -59 110 -81 142 -105 152 -27 12 -21 13 74 14 103 0 103 0 80
-19z m97 -35 c3 -8 -1 -27 -9 -42 l-15 -28 -17 33 c-14 28 -14 35 -3 42 20 13
38 11 44 -5z m322 -438 c17 -17 15 -63 -3 -78 -10 -8 -32 -10 -70 -5 l-55 6
-40 -62 c-22 -34 -40 -65 -40 -69 0 -4 11 -12 24 -18 13 -6 43 -34 67 -63 84
-101 105 -119 139 -119 37 0 37 -18 -1 -37 -62 -32 -116 -4 -201 107 -56 73
-87 99 -120 100 -16 0 -18 -10 -18 -82 0 -91 4 -102 40 -117 19 -7 -3 -10 -85
-10 -60 1 -103 3 -95 6 48 18 50 26 50 218 0 184 -4 205 -40 218 -8 3 30 5 85
5 55 0 93 -2 85 -5 -32 -11 -40 -37 -40 -130 l0 -93 28 6 c49 12 62 24 123
117 33 50 68 97 77 104 22 16 74 17 90 1z m252 -127 l0 -29 29 29 c24 24 38
29 78 29 96 0 147 -63 146 -180 0 -36 -6 -77 -13 -90 -47 -91 -151 -117 -214
-53 l-26 26 0 -75 c0 -76 9 -98 42 -98 10 0 18 -4 18 -10 0 -5 -15 -10 -34
-10 -18 0 -62 -2 -97 -5 -52 -4 -60 -3 -42 6 30 16 33 33 33 222 0 176 -5 202
-43 216 -19 7 -12 12 43 29 83 27 80 27 80 -7z m1106 12 c-2 -10 -8 -38 -11
-63 l-7 -44 -19 37 c-23 43 -45 57 -93 57 l-36 0 0 -137 c0 -76 4 -143 8 -150
4 -7 19 -16 32 -22 19 -7 -1 -10 -80 -10 -73 0 -98 3 -82 9 33 14 42 49 42
168 0 113 -12 150 -48 154 -9 1 48 5 128 8 80 3 151 7 158 8 8 1 11 -5 8 -15z
m333 2 c38 -19 41 -30 41 -148 0 -56 3 -112 6 -124 8 -27 30 -36 56 -22 16 9
19 8 16 -3 -2 -7 -20 -22 -39 -32 -45 -24 -83 -16 -108 24 l-18 30 -38 -30
c-45 -36 -95 -47 -136 -30 -35 15 -49 37 -49 77 1 46 40 81 140 122 74 31 92
48 88 85 -2 22 -11 35 -30 44 -41 19 -75 1 -88 -47 -12 -44 -37 -59 -70 -41
-33 18 -27 66 13 90 40 25 172 28 216 5z m-941 -6 c-10 -5 -18 -21 -18 -35 0
-25 76 -174 89 -174 8 0 81 159 81 177 0 6 -7 19 -16 27 -14 15 -10 16 48 15
55 0 59 -2 35 -11 -28 -10 -50 -50 -191 -350 -49 -103 -118 -149 -171 -114
-46 30 -21 85 32 72 80 -20 80 -20 107 20 14 21 26 48 26 59 -1 35 -152 298
-180 312 -22 11 -12 13 75 13 73 -1 95 -3 83 -11z m89 -37 c8 -5 7 -16 -6 -40
l-17 -32 -18 31 c-15 26 -16 33 -5 40 17 11 30 11 46 1z m763 -11 c0 -6 -4
-13 -10 -16 -5 -3 -10 1 -10 9 0 9 5 16 10 16 6 0 10 -4 10 -9z"/>
<path d="M9279 17294 c-20 -21 -24 -38 -27 -103 -5 -93 13 -146 55 -162 34
-13 65 0 89 37 24 35 24 166 1 210 -27 52 -79 60 -118 18z m81 -60 c15 -45 6
-132 -15 -153 -15 -15 -18 -14 -31 3 -18 25 -19 157 -2 174 21 21 36 13 48
-24z"/>
<path d="M10590 17189 c-30 -16 -63 -39 -72 -50 -21 -24 -24 -69 -6 -87 19
-19 69 -14 105 11 32 21 33 24 33 90 0 37 -1 67 -2 66 -2 0 -28 -13 -58 -30z
m0 -84 c-14 -16 -40 -20 -40 -6 0 13 44 40 48 30 2 -6 -2 -16 -8 -24z"/>
<path d="M21566 17741 c-4 -6 -18 -11 -31 -11 -13 0 -27 -4 -30 -10 -3 -5 -14
-10 -24 -10 -10 0 -53 -18 -96 -40 -43 -22 -85 -40 -94 -40 -29 0 -142 -127
-362 -405 -164 -207 -242 -333 -303 -491 -91 -235 -101 -431 -43 -822 20 -134
41 -260 47 -282 13 -49 58 -148 71 -156 35 -21 30 -136 -16 -384 -37 -195 -46
-233 -61 -250 -7 -9 -20 -42 -29 -75 -8 -33 -20 -61 -25 -63 -6 -2 -10 -13
-10 -25 0 -12 -33 -74 -74 -138 -257 -401 -472 -849 -669 -1394 -36 -99 -72
-202 -80 -230 -8 -27 -29 -95 -47 -150 -139 -445 -267 -1065 -295 -1440 -3
-44 -8 -92 -11 -107 -4 -19 1 -32 15 -45 27 -22 27 -47 -1 -75 -21 -21 -21
-26 -15 -212 7 -207 34 -434 73 -616 32 -153 39 -173 159 -545 182 -559 263
-869 314 -1200 15 -96 18 -244 7 -400 -7 -107 -6 -145 8 -215 44 -228 199
-401 410 -457 174 -46 249 -199 249 -508 0 -245 -28 -385 -186 -906 -79 -263
-82 -277 -63 -285 40 -19 38 -94 -3 -94 -11 0 -23 -5 -27 -11 -5 -9 3 -10 29
-5 42 8 114 -8 140 -32 19 -17 22 -16 31 15 5 17 1 24 -21 35 -19 9 -29 22
-31 41 -5 39 14 57 58 57 l37 0 22 73 c193 632 241 859 241 1131 -1 333 -118
576 -324 672 -41 18 -84 34 -95 34 -39 0 -111 42 -153 89 -90 101 -116 213
-97 413 33 331 -62 792 -332 1614 -177 542 -222 781 -222 1184 0 239 0 222 13
370 70 768 372 1788 756 2554 130 257 341 616 364 616 15 0 105 101 105 118 1
34 19 69 78 146 187 246 464 535 657 686 403 315 1044 750 1104 750 13 0 50
-13 81 -30 45 -24 70 -30 117 -30 l61 0 -6 68 c-8 99 -26 141 -66 163 -40 21
-121 98 -121 115 0 6 -9 19 -20 29 -11 10 -20 23 -20 30 0 7 -9 20 -20 30 -11
10 -20 23 -20 29 0 6 -31 42 -68 79 -50 49 -92 80 -157 112 -49 25 -97 45
-106 45 -10 0 -21 5 -24 10 -3 6 -17 10 -30 10 -13 0 -27 5 -30 10 -3 6 -26
10 -50 10 -24 0 -47 5 -50 10 -3 6 -30 10 -60 10 -30 0 -57 5 -60 10 -3 6 -39
10 -80 10 -41 0 -77 5 -80 10 -3 6 -44 10 -90 10 -46 0 -87 5 -90 10 -3 6 -30
10 -60 10 -30 0 -57 5 -60 10 -3 6 -17 10 -30 10 -13 0 -27 5 -30 10 -3 6 -16
10 -29 10 -13 0 -31 9 -41 20 -10 11 -23 20 -30 20 -25 0 -85 85 -85 119 0 11
-4 23 -10 26 -5 3 -10 24 -10 45 0 21 5 42 10 45 6 3 10 14 10 25 0 44 163
180 217 180 7 0 28 9 48 20 20 11 44 20 55 20 10 0 22 5 25 10 3 6 14 10 23
10 20 0 225 100 250 123 9 8 24 17 32 20 8 3 -28 6 -81 6 -71 1 -100 5 -108
15 -11 13 -17 12 -47 -6 -46 -27 -105 -20 -144 17 -18 17 -30 23 -34 16z
m-430 -708 c18 -40 151 -183 170 -183 6 0 19 -9 29 -20 10 -11 26 -20 36 -20
10 0 34 -9 54 -20 20 -11 44 -20 55 -20 10 0 22 -4 25 -10 3 -5 26 -10 50 -10
24 0 47 -4 50 -10 3 -5 39 -10 80 -10 41 0 77 -4 80 -10 3 -6 48 -10 100 -10
52 0 97 -4 100 -10 3 -5 30 -10 60 -10 30 0 57 -4 60 -10 3 -5 26 -10 50 -10
24 0 47 -4 50 -10 3 -5 19 -10 34 -10 75 0 262 -138 297 -219 8 -18 14 -35 14
-36 0 -2 -24 -18 -52 -36 -380 -237 -718 -475 -1093 -767 -38 -31 -152 -138
-253 -240 -127 -128 -187 -182 -198 -178 -9 3 -13 13 -10 23 2 10 7 52 11 93
3 41 13 104 22 140 22 90 13 134 -39 182 -22 20 -37 42 -33 47 3 7 -2 11 -15
11 -27 0 -36 25 -55 162 -9 62 -23 156 -31 208 -63 385 6 648 253 973 53 68
75 73 99 20z"/>
<path d="M28065 15559 c-60 -34 -74 -115 -29 -168 22 -27 32 -31 74 -31 30 0
52 5 60 15 11 14 10 14 -11 7 -40 -14 -72 0 -92 40 -15 31 -16 43 -7 77 17 65
55 73 113 23 16 -14 17 -13 17 14 0 28 -2 29 -53 31 -28 2 -61 -2 -72 -8z"/>
<path d="M28265 15506 c-11 -8 -16 -19 -12 -30 9 -24 26 -20 37 10 11 29 43
30 48 2 2 -12 -10 -24 -43 -40 -44 -22 -65 -53 -50 -77 8 -14 51 -14 78 0 16
9 22 9 25 0 4 -13 58 -15 66 -2 3 5 -3 11 -14 14 -17 4 -20 14 -20 59 0 30 -5
59 -12 66 -16 16 -80 15 -103 -2z m75 -85 c0 -28 -14 -41 -46 -41 -22 0 -16
37 8 54 32 22 38 20 38 -13z"/>
<path d="M28715 15495 c-54 -53 -20 -135 55 -135 53 0 80 27 80 79 0 73 -84
108 -135 56z m80 -26 c30 -37 32 -92 3 -97 -21 -4 -66 42 -74 75 -15 58 29 72
71 22z"/>
<path d="M29351 15509 c-19 -7 -22 -12 -13 -21 16 -16 16 -170 0 -186 -9 -9
-7 -12 13 -11 32 1 80 17 57 18 -13 1 -18 9 -18 29 0 26 2 27 39 24 31 -3 42
0 55 19 23 33 21 94 -4 119 -21 21 -65 27 -75 10 -3 -5 3 -10 14 -10 38 0 56
-76 27 -116 -12 -15 -18 -17 -33 -8 -13 9 -18 25 -19 65 -3 90 0 85 -43 68z"/>
<path d="M29555 15506 c-11 -8 -16 -19 -12 -30 9 -23 26 -20 39 9 12 27 43 33
52 10 6 -16 -18 -45 -39 -45 -8 0 -26 -10 -41 -23 -37 -32 -27 -67 20 -67 17
0 38 6 45 13 11 10 14 10 18 0 6 -15 59 -17 68 -3 3 6 0 10 -8 10 -19 0 -27
22 -27 74 0 23 -5 47 -12 54 -16 16 -80 15 -103 -2z m85 -81 c0 -26 -32 -50
-56 -41 -21 8 -17 31 9 49 32 23 47 20 47 -8z"/>
<path d="M29956 15499 c-33 -26 -37 -88 -6 -119 24 -24 78 -26 106 -5 18 14
18 15 -6 6 -14 -4 -32 -6 -40 -3 -42 13 -55 86 -20 117 23 20 34 14 35 -18 0
-26 38 -31 43 -6 9 46 -66 64 -112 28z"/>
<path d="M30100 15491 c0 -23 1 -23 18 -8 10 10 24 17 30 17 16 0 16 -112 0
-128 -9 -9 -2 -12 33 -11 24 0 38 3 32 6 -9 3 -13 27 -13 69 0 67 9 77 40 49
16 -14 18 -14 22 7 4 22 2 23 -79 23 -81 0 -83 -1 -83 -24z"/>
<path d="M30516 15499 c-33 -26 -37 -88 -6 -119 29 -29 90 -27 118 3 69 74
-32 179 -112 116z m81 -38 c30 -44 30 -77 1 -87 -37 -11 -91 69 -74 112 10 25
48 12 73 -25z"/>
<path d="M28470 15495 c-10 -12 -10 -18 0 -30 16 -20 3 -71 -23 -90 -21 -15
-21 -15 12 -15 25 0 31 3 23 13 -6 8 -6 21 0 37 l10 25 20 -40 21 -39 22 43
c17 34 23 40 28 27 11 -28 8 -54 -5 -59 -7 -3 9 -6 36 -6 42 -1 47 1 34 12 -9
6 -23 41 -31 77 l-14 65 -24 -47 c-12 -27 -27 -48 -31 -48 -5 0 -18 20 -30 45
-24 49 -29 52 -48 30z"/>
<path d="M28913 15477 c12 -18 31 -51 41 -75 22 -49 11 -72 -35 -72 -29 0 -40
-22 -19 -35 27 -16 52 11 103 111 47 90 51 104 35 104 -11 0 -16 -4 -13 -10 3
-5 -3 -26 -13 -46 l-19 -37 -22 37 c-12 19 -20 40 -16 46 4 6 -8 10 -29 10
l-35 0 22 -33z"/>
<path d="M29118 15444 c3 -48 0 -69 -10 -75 -8 -6 6 -9 37 -9 39 1 46 3 33 11
-14 8 -18 23 -18 69 l0 60 35 0 35 0 0 -64 c0 -42 -4 -66 -12 -69 -7 -3 9 -6
36 -6 44 -1 48 1 32 12 -16 11 -18 24 -14 75 l4 62 -80 0 -81 0 3 -66z"/>
<path d="M29748 15444 c3 -48 0 -69 -10 -75 -19 -12 105 -11 137 1 32 12 31
50 -1 64 l-22 10 21 17 c18 14 19 19 8 33 -10 11 -31 16 -75 16 l-61 0 3 -66z
m97 46 c9 -15 -14 -40 -36 -40 -14 0 -19 7 -19 25 0 20 5 25 24 25 14 0 28 -5
31 -10z m-11 -60 c14 -5 26 -16 26 -25 0 -17 -46 -39 -61 -29 -15 9 -10 64 7
64 1 0 14 -4 28 -10z"/>
<path d="M30308 15444 c3 -48 0 -69 -10 -75 -19 -12 105 -11 137 1 32 12 31
50 -1 64 l-22 10 21 17 c18 14 19 19 8 33 -10 11 -31 16 -75 16 l-61 0 3 -66z
m97 46 c9 -15 -14 -40 -36 -40 -14 0 -19 7 -19 25 0 20 5 25 24 25 14 0 28 -5
31 -10z m-11 -60 c14 -5 26 -16 26 -25 0 -17 -46 -39 -61 -29 -15 9 -10 64 7
64 1 0 14 -4 28 -10z"/>
<path d="M24372 13638 c-21 -21 -14 -56 15 -75 36 -24 126 -22 153 2 26 23 27
72 1 80 -32 10 -50 -5 -53 -43 -2 -30 -8 -38 -25 -40 -20 -3 -23 1 -23 30 0
37 -15 58 -40 58 -9 0 -21 -5 -28 -12z"/>
<path d="M21843 13584 l27 -15 0 -154 0 -154 -27 -15 c-26 -14 -19 -15 102
-16 72 0 147 5 167 10 109 31 103 169 -7 187 l-38 6 36 19 c48 24 70 58 61 92
-11 46 -47 56 -206 56 -133 -1 -141 -2 -115 -16z m228 -35 c17 -27 9 -57 -22
-83 -17 -14 -39 -26 -49 -26 -10 0 -25 -3 -34 -6 -14 -5 -16 4 -16 66 l0 72
56 -4 c33 -3 60 -11 65 -19z m9 -164 c13 -12 20 -31 20 -56 0 -50 -27 -69 -97
-69 l-53 0 0 76 0 76 55 -4 c34 -3 62 -12 75 -23z"/>
<path d="M22314 13506 c-51 -22 -79 -71 -79 -138 0 -66 21 -103 76 -130 105
-54 221 15 221 132 0 115 -110 183 -218 136z m66 -31 c54 -28 108 -146 88
-191 -26 -57 -89 -36 -141 48 -39 62 -45 110 -18 137 25 25 33 26 71 6z"/>
<path d="M22649 13497 c-48 -32 -71 -81 -66 -140 5 -57 30 -95 78 -119 72 -37
161 -12 195 54 l17 33 -24 -21 c-33 -30 -63 -44 -93 -44 -27 0 -86 44 -86 65
0 7 39 29 88 48 92 37 104 51 81 94 -30 55 -129 71 -190 30z m116 -28 c8 -25
-16 -54 -69 -81 l-39 -20 6 42 c3 23 13 50 23 61 24 26 71 25 79 -2z"/>
<path d="M24493 13423 l-103 -96 0 69 c0 74 4 84 35 102 16 9 3 11 -67 12
l-87 0 24 -25 c24 -23 25 -30 25 -146 l0 -121 105 97 105 97 0 -68 c0 -74 -4
-84 -35 -102 -16 -9 -3 -11 69 -12 l88 0 -23 19 c-22 18 -24 28 -29 144 l-5
125 -102 -95z"/>
<path d="M22935 13485 c23 -22 25 -32 25 -115 0 -83 -2 -93 -25 -115 l-24 -25
87 0 c70 1 83 3 67 12 -29 16 -35 28 -35 71 l0 37 70 0 70 0 0 -37 c0 -43 -6
-55 -35 -71 -16 -9 -3 -11 67 -12 l87 0 -24 25 c-23 22 -25 32 -25 115 0 83 2
93 25 115 l24 25 -87 0 c-70 -1 -83 -3 -67 -12 29 -16 35 -28 35 -70 l0 -38
-70 0 -70 0 0 38 c0 42 6 54 35 70 16 9 3 11 -67 12 l-87 0 24 -25z"/>
<path d="M23355 13485 c23 -22 25 -32 25 -115 0 -83 -2 -93 -25 -115 l-24 -25
87 0 c70 1 83 3 67 12 -29 16 -35 28 -35 71 l0 37 70 0 70 0 0 -37 c0 -43 -6
-55 -35 -71 -16 -9 -3 -11 67 -12 l87 0 -24 25 c-23 22 -25 32 -25 115 0 83 2
93 25 115 l24 25 -87 0 c-70 -1 -83 -3 -67 -12 29 -16 35 -28 35 -70 l0 -38
-70 0 -70 0 0 38 c0 42 6 54 35 70 16 9 3 11 -67 12 l-87 0 24 -25z"/>
<path d="M23775 13485 c23 -22 25 -32 25 -115 0 -83 -2 -93 -25 -115 l-24 -25
105 0 c152 0 194 22 194 104 0 41 -25 72 -67 82 -24 6 -37 3 -95 -21 -15 -6
-18 -1 -18 31 0 44 6 56 35 72 16 9 3 11 -67 12 l-87 0 24 -25z m179 -121 c21
-21 20 -67 -1 -86 -10 -9 -33 -19 -50 -23 l-33 -7 0 60 c0 49 3 61 18 65 34 9
51 7 66 -9z"/>
<path d="M24075 13498 c32 -18 35 -28 35 -128 0 -100 -3 -110 -35 -128 -16 -9
-3 -11 69 -12 l88 0 -23 19 c-22 18 -24 26 -24 121 0 95 2 103 24 121 l23 19
-88 0 c-72 -1 -85 -3 -69 -12z"/>
<path d="M22451 13022 c-1 -7 -15 -21 -32 -31 -18 -11 -26 -22 -20 -25 20 -13
12 -55 -24 -126 -22 -44 -45 -75 -62 -84 -27 -15 -27 -15 36 -16 62 0 63 0 42
18 l-21 17 31 65 31 65 28 -55 c35 -67 37 -84 8 -98 -18 -8 -2 -11 77 -11 80
1 94 3 72 11 -23 8 -41 36 -97 146 -38 76 -69 131 -69 124z"/>
<path d="M22713 13016 c-27 -12 -33 -21 -33 -45 0 -59 72 -60 85 -2 12 56 85
51 85 -6 0 -20 -11 -29 -74 -58 -110 -50 -141 -101 -91 -150 32 -33 81 -33
128 -1 l36 25 16 -25 c18 -29 68 -33 103 -8 30 21 28 35 -5 32 l-28 -3 -5 107
c-6 135 -12 142 -113 145 -47 2 -83 -2 -104 -11z m133 -203 c-9 -22 -67 -43
-88 -32 -18 10 -24 45 -10 66 4 6 27 23 52 37 l45 26 3 -41 c2 -23 1 -48 -2
-56z"/>
<path d="M23130 13023 c-108 -3 -122 -5 -100 -16 24 -12 25 -15 25 -127 0
-112 -1 -115 -25 -127 -22 -11 -13 -13 70 -12 90 0 94 1 68 15 l-28 15 0 116
0 116 33 -7 c33 -6 67 -38 67 -62 0 -30 19 -12 25 24 4 20 9 45 12 55 3 10 -1
16 -9 15 -7 -1 -69 -4 -138 -5z"/>
<path d="M23391 13012 c-95 -51 -95 -214 0 -262 77 -40 164 -18 203 51 l20 34
-33 -28 c-38 -31 -71 -42 -106 -33 -27 7 -65 43 -65 62 0 6 39 28 88 47 104
41 113 58 59 112 -30 30 -41 35 -84 35 -28 0 -63 -8 -82 -18z m108 -26 c17
-20 -1 -51 -42 -76 -44 -27 -57 -25 -57 9 0 59 68 105 99 67z"/>
<path d="M23705 13013 c-62 -19 -64 -20 -37 -39 21 -14 22 -22 22 -176 0 -151
-1 -160 -20 -165 -11 -3 -20 -9 -20 -14 0 -9 106 -4 160 7 25 6 25 6 -7 19
-31 13 -33 17 -33 66 l0 51 26 -17 c41 -27 111 -15 145 23 49 54 50 166 2 222
-38 45 -119 53 -157 14 -15 -14 -16 -14 -16 5 0 24 0 24 -65 4z m160 -38 c15
-15 26 -37 27 -57 5 -124 -30 -182 -87 -144 -45 29 -48 173 -5 208 29 23 36
23 65 -7z"/>
<path d="M24045 12995 c23 -22 25 -32 25 -115 0 -83 -2 -93 -25 -115 l-24 -25
105 0 c152 0 194 22 194 104 0 41 -25 72 -67 82 -24 6 -37 3 -95 -21 -15 -6
-18 -1 -18 31 0 44 6 56 35 72 16 9 3 11 -67 12 l-87 0 24 -25z m179 -121 c21
-21 20 -67 -1 -86 -10 -9 -33 -19 -50 -23 l-33 -7 0 60 c0 49 3 61 18 65 34 9
51 7 66 -9z"/>
<path d="M33980 9662 l-24 -32 -338 0 c-186 0 -338 -4 -338 -8 0 -5 18 -14 40
-21 28 -8 47 -22 60 -44 19 -30 20 -53 20 -362 0 -310 -1 -332 -20 -362 -13
-22 -31 -35 -60 -43 -85 -23 -38 -30 198 -30 327 0 431 18 510 86 61 52 84
102 84 185 1 56 -4 79 -28 126 -49 99 -133 146 -259 145 -73 0 -132 -20 -196
-68 l-49 -36 0 186 0 186 88 0 c161 -1 244 -30 349 -124 l51 -46 -25 113 c-13
61 -27 128 -31 147 l-8 35 -24 -33z m-160 -464 c63 -32 85 -75 85 -163 -1
-135 -54 -187 -209 -206 -48 -6 -94 -8 -102 -5 -12 5 -14 33 -12 167 3 161 3
162 29 181 33 25 96 47 134 48 17 0 51 -10 75 -22z"/>
<path d="M37365 9447 c-38 -21 -54 -22 -303 -25 -212 -3 -273 0 -315 12 -28 8
-52 14 -53 13 -3 -3 -24 -193 -24 -218 0 -19 11 -12 68 43 77 75 117 98 167
98 l36 0 -3 -264 c-3 -297 -3 -296 -80 -316 -80 -22 -36 -30 167 -30 116 0
205 4 205 9 0 5 -19 15 -42 23 -74 23 -78 41 -78 331 l0 247 46 0 c68 0 106
-23 155 -92 24 -34 44 -57 46 -52 4 12 51 244 49 244 0 -1 -19 -11 -41 -23z"/>
<path d="M34432 9422 c-273 -97 -295 -521 -34 -649 52 -26 67 -28 167 -28 124
0 170 15 239 76 155 135 155 403 0 538 -63 56 -117 74 -224 78 -74 3 -107 -1
-148 -15z m102 -62 c67 -25 172 -157 220 -276 49 -121 43 -188 -20 -244 -40
-35 -95 -40 -150 -14 -53 25 -128 117 -181 221 -40 80 -48 105 -51 164 -3 53
0 75 12 95 36 54 109 78 170 54z"/>
<path d="M36108 9427 c-97 -36 -149 -82 -199 -177 -21 -40 -24 -58 -24 -160 0
-102 3 -120 24 -160 40 -76 77 -115 143 -151 61 -33 67 -34 173 -34 98 0 116
3 165 26 70 33 126 89 159 159 23 48 26 67 26 160 0 93 -3 112 -26 160 -33 70
-89 126 -159 159 -45 21 -72 26 -150 28 -61 2 -108 -2 -132 -10z m120 -84 c92
-63 207 -255 219 -363 14 -141 -101 -216 -219 -141 -101 64 -218 273 -218 388
0 121 118 183 218 116z"/>
<path d="M37667 9430 c-92 -23 -137 -68 -137 -137 0 -62 32 -93 95 -93 61 0
92 29 101 98 9 69 38 96 103 95 81 -1 111 -31 111 -110 0 -48 -36 -80 -141
-122 -197 -80 -274 -135 -298 -213 -24 -74 13 -157 82 -188 48 -22 142 -26
184 -8 38 17 136 82 153 103 12 15 15 12 30 -27 22 -60 66 -88 140 -88 45 0
65 6 103 30 45 28 78 73 64 86 -3 4 -22 -1 -41 -10 -45 -21 -59 -20 -82 5 -17
19 -19 43 -24 248 -6 259 -10 274 -90 314 -39 19 -63 22 -180 24 -74 1 -152
-2 -173 -7z m251 -513 c-103 -81 -179 -97 -230 -47 -27 28 -30 36 -25 77 7 61
46 99 172 166 l100 52 3 -115 c3 -109 2 -115 -20 -133z"/>
<path d="M35365 9410 c-9 -29 -68 -70 -110 -77 l-36 -6 26 -27 c32 -34 45 -79
35 -124 -8 -36 -138 -291 -172 -337 -22 -29 -47 -44 -90 -53 -16 -4 -28 -11
-28 -16 0 -6 57 -10 145 -10 92 0 145 4 145 10 0 6 -13 13 -29 16 -44 9 -65
37 -58 76 3 18 36 91 73 163 l67 129 69 -138 c37 -76 68 -151 68 -166 0 -31
-23 -54 -62 -64 -16 -3 -28 -11 -28 -16 0 -6 79 -10 210 -10 209 0 253 8 171
30 -23 6 -51 24 -69 44 -17 19 -92 161 -168 315 -75 155 -141 281 -145 281 -4
0 -11 -9 -14 -20z"/>
<path d="M20900 5870 c-26 -26 -25 -43 4 -77 21 -24 32 -28 92 -31 56 -2 75 1
102 17 26 17 32 27 32 56 0 28 -5 37 -22 44 -45 16 -68 -5 -68 -62 0 -37 -1
-38 -32 -35 -31 3 -33 5 -30 39 3 29 -1 40 -20 53 -29 20 -34 20 -58 -4z"/>
<path d="M20056 5838 c-27 -15 -286 -22 -371 -10 -38 5 -71 9 -72 7 -2 -1 -6
-30 -10 -65 l-6 -64 39 30 c55 44 78 54 118 54 l36 0 0 -181 c0 -179 -6 -219
-35 -219 -7 0 -17 -4 -20 -10 -4 -6 34 -10 107 -10 l113 0 -31 19 c-41 25 -45
51 -43 246 l1 155 50 0 c45 0 54 -4 88 -38 l38 -38 12 63 c7 35 11 66 9 68 -2
2 -13 -1 -23 -7z"/>
<path d="M18460 5820 c0 -6 -17 -19 -39 -28 -38 -17 -38 -18 -25 -45 13 -25
12 -33 -16 -99 -74 -174 -114 -242 -150 -260 l-35 -18 90 0 c86 1 89 2 63 16
-30 15 -35 41 -18 75 9 17 22 19 106 19 l95 0 13 -32 c15 -35 11 -58 -9 -58
-8 0 -17 -4 -20 -10 -4 -6 36 -10 112 -9 88 0 112 3 93 10 -13 6 -31 16 -40
24 -8 8 -58 106 -110 219 -85 185 -110 229 -110 196z m9 -206 c17 -36 31 -70
31 -75 0 -5 -29 -9 -65 -9 -36 0 -65 4 -65 10 0 9 62 140 66 140 1 0 16 -30
33 -66z"/>
<path d="M18858 5705 c-68 -21 -94 -35 -66 -35 8 0 22 -8 31 -18 15 -16 17
-46 17 -205 0 -191 -3 -206 -42 -220 -7 -2 -11 -7 -8 -10 8 -8 204 13 215 24
5 5 -1 9 -17 9 -44 0 -58 23 -57 98 0 37 3 61 6 54 16 -40 116 -54 173 -24 86
47 106 216 34 301 -47 57 -141 65 -190 16 l-23 -23 -3 27 -3 27 -67 -21z m197
-39 c42 -42 46 -182 6 -236 -39 -53 -111 -29 -125 42 -30 150 43 270 119 194z"/>
<path d="M21053 5611 c-67 -61 -125 -111 -128 -111 -3 0 -5 38 -5 83 0 86 8
104 50 120 8 3 -34 5 -95 6 -82 0 -104 -3 -85 -10 13 -6 27 -12 30 -15 3 -3 7
-77 10 -164 l5 -159 128 115 127 115 0 -90 0 -91 -32 -20 -33 -20 108 0 c70 0
106 4 102 10 -3 6 -12 10 -20 10 -25 0 -30 24 -35 179 l-5 153 -122 -111z"/>
<path d="M20147 5700 c35 -14 43 -43 43 -159 0 -126 -3 -138 -39 -154 -22 -10
-10 -12 84 -15 141 -4 206 9 240 49 29 35 33 85 11 128 -27 52 -102 66 -169
32 l-37 -19 0 52 c0 59 6 71 40 85 19 7 -3 10 -85 10 -73 0 -103 -3 -88 -9z
m230 -158 c20 -13 33 -60 24 -85 -13 -33 -35 -48 -81 -54 l-40 -6 0 70 c0 38
3 73 7 76 9 9 75 9 90 -1z"/>
<path d="M20320 5480 c0 -35 25 -42 35 -10 8 24 -1 40 -21 40 -9 0 -14 -11
-14 -30z"/>
<path d="M20525 5703 c42 -11 45 -20 45 -159 l0 -134 -32 -20 -33 -20 115 1
c93 1 110 3 88 12 -37 14 -48 52 -48 163 0 105 10 141 42 154 16 6 -11 9 -87
8 -60 0 -101 -3 -90 -5z"/>
<path d="M19260 5570 l0 -30 135 0 135 0 0 30 0 30 -135 0 -135 0 0 -30z"/>
<path d="M20370 5329 c-25 -4 -79 -8 -121 -8 l-75 -1 -28 -60 c-15 -33 -44
-81 -65 -107 -42 -55 -75 -154 -93 -285 -23 -177 21 -450 183 -1118 56 -232
104 -481 124 -647 23 -190 16 -522 -14 -663 -49 -232 -116 -369 -295 -608
-149 -197 -237 -302 -394 -471 -153 -164 -233 -261 -314 -380 -211 -309 -239
-760 -58 -936 21 -21 43 -34 49 -31 6 4 20 26 31 50 10 23 26 49 35 56 8 7 15
18 15 25 0 6 9 20 19 29 19 17 19 18 -4 51 -30 46 -49 151 -41 234 8 86 49
237 83 307 40 81 190 273 347 440 254 274 515 611 605 784 170 328 218 735
145 1235 -24 169 -53 307 -130 635 -128 539 -153 673 -161 850 -3 83 -1 155 5
185 6 28 41 104 77 170 60 111 131 264 123 269 -2 1 -23 -1 -48 -5z"/>
</g>
</svg>
